<svg width="45" height="44" viewBox="0 0 45 44" fill="none" xmlns="http://www.w3.org/2000/svg">
<rect x="0.666992" width="44" height="44" rx="9.77778" fill="url(#paint0_linear_2026_1631)"/>
<path d="M31.1253 25.6252C33.1274 25.6252 34.7503 27.2481 34.7503 29.2502C34.7503 31.2522 33.1274 32.8752 31.1253 32.8752C29.547 32.8752 28.2042 31.8665 27.7066 30.4585L23.8753 30.4585L23.8753 32.8752H20.2503L20.2503 30.4585L19.042 30.4585V28.0418L27.7066 28.0418C28.2042 26.6339 29.547 25.6252 31.1253 25.6252ZM29.917 12.3335L29.917 24.5692C29.3422 24.7172 28.8089 24.9683 28.3377 25.3014C27.7679 25.7041 27.2894 26.2273 26.9388 26.8336L17.8337 26.8335V31.6668H11.792V17.771L19.042 22.0002V17.771L26.292 22.0002V12.3335H29.917ZM31.1253 28.0418C30.458 28.0418 29.917 28.5828 29.917 29.2502C29.917 29.9175 30.458 30.4585 31.1253 30.4585C31.7927 30.4585 32.3337 29.9175 32.3337 29.2502C32.3337 28.5828 31.7927 28.0418 31.1253 28.0418Z" fill="white"/>
<defs>
<linearGradient id="paint0_linear_2026_1631" x1="22.667" y1="0" x2="22.667" y2="44" gradientUnits="userSpaceOnUse">
<stop stop-color="#6C63FF"/>
<stop offset="1" stop-color="#2564EA"/>
</linearGradient>
</defs>
</svg>
