<svg width="45" height="44" viewBox="0 0 45 44" fill="none" xmlns="http://www.w3.org/2000/svg">
<rect x="0.333008" width="44" height="44" rx="9.77778" fill="url(#paint0_linear_256_1385)"/>
<path d="M9.04486 34.0791C8.88541 34.0785 8.72742 34.1094 8.57998 34.1701C8.43255 34.2309 8.2986 34.3202 8.18586 34.4329C8.07311 34.5457 7.9838 34.6796 7.92307 34.8271C7.86235 34.9745 7.83141 35.1325 7.83204 35.2919C7.83259 35.4506 7.8644 35.6076 7.92565 35.754C7.9869 35.9004 8.0764 36.0333 8.18903 36.1451C8.30166 36.2569 8.43521 36.3454 8.58205 36.4056C8.7289 36.4658 8.88616 36.4964 9.04486 36.4958H35.6193C35.7779 36.4964 35.9352 36.4658 36.082 36.4056C36.2289 36.3454 36.3624 36.2569 36.475 36.1451C36.5877 36.0333 36.6772 35.9004 36.7384 35.754C36.7997 35.6076 36.8315 35.4506 36.832 35.2919C36.8327 35.1325 36.8017 34.9745 36.741 34.8271C36.6803 34.6796 36.591 34.5457 36.4782 34.4329C36.3655 34.3202 36.2315 34.2309 36.0841 34.1702C35.9367 34.1094 35.7787 34.0785 35.6193 34.0791H9.04486Z" fill="white"/>
<path d="M13.1472 25.625C11.5619 25.625 10.249 26.9379 10.249 28.5232V35.2917C10.2496 35.4504 10.2814 35.6074 10.3427 35.7538C10.4039 35.9002 10.4934 36.033 10.606 36.1448C10.7187 36.2566 10.8522 36.3451 10.999 36.4053C11.1459 36.4655 11.3031 36.4961 11.4618 36.4955H16.2952C16.6141 36.4944 16.9196 36.3672 17.1452 36.1417C17.3707 35.9162 17.4979 35.6106 17.499 35.2917V28.5232C17.499 26.9379 16.1861 25.625 14.6008 25.625H13.1472Z" fill="white"/>
<path d="M21.6101 21.5137C20.0248 21.5137 18.7119 22.8265 18.7119 24.4119V35.2914C18.713 35.6103 18.8402 35.9158 19.0658 36.1414C19.2913 36.3669 19.5968 36.4941 19.9158 36.4952H24.7491C25.0681 36.4941 25.3736 36.3669 25.5992 36.1414C25.8247 35.9158 25.9519 35.6103 25.953 35.2914V24.4119C25.953 22.8265 24.6401 21.5137 23.0548 21.5137H21.6101Z" fill="white"/>
<path d="M30.0643 17.8931C28.4789 17.8931 27.166 19.2059 27.166 20.7913V35.2913C27.1671 35.6102 27.2944 35.9158 27.5199 36.1413C27.7454 36.3668 28.051 36.494 28.3699 36.4952H33.2032C33.3619 36.4958 33.5192 36.4651 33.666 36.4049C33.8129 36.3448 33.9464 36.2563 34.059 36.1445C34.1717 36.0327 34.2612 35.8998 34.3224 35.7534C34.3837 35.607 34.4155 35.45 34.4161 35.2913V20.7913C34.4161 19.2059 33.0943 17.8931 31.5089 17.8931H30.0643Z" fill="white"/>
<path d="M28.9316 7.50488C28.6124 7.5055 28.3065 7.6324 28.0806 7.85787C27.8547 8.08333 27.7272 8.38903 27.7259 8.7082C27.7253 8.86704 27.756 9.02444 27.8163 9.1714C27.8766 9.31836 27.9652 9.45198 28.0772 9.56463C28.1892 9.67727 28.3223 9.76673 28.4689 9.82787C28.6155 9.88901 28.7727 9.92065 28.9316 9.92095H30.1797C23.3474 15.795 16.1935 19.4439 8.82203 20.8098C8.5078 20.8693 8.22999 21.051 8.04954 21.3151C7.86908 21.5792 7.8007 21.904 7.85938 22.2184C7.91684 22.5324 8.09625 22.8109 8.35842 22.9931C8.62059 23.1752 8.9442 23.2462 9.25853 23.1905C17.1955 21.7198 24.8323 17.7759 31.9989 11.556V12.9788C31.9982 13.1374 32.0289 13.2946 32.089 13.4414C32.1491 13.5883 32.2376 13.7218 32.3493 13.8344C32.4611 13.947 32.5939 14.0365 32.7402 14.0978C32.8866 14.1591 33.0435 14.1909 33.2022 14.1915C33.3616 14.1922 33.5196 14.1612 33.667 14.1005C33.8144 14.0398 33.9484 13.9505 34.0611 13.8377C34.1739 13.725 34.2632 13.5911 34.3239 13.4436C34.3846 13.2962 34.4156 13.1382 34.4149 12.9788V9.42075C34.4152 8.3781 33.5323 7.50465 32.4896 7.50488H28.9316Z" fill="white"/>
<defs>
<linearGradient id="paint0_linear_256_1385" x1="22.333" y1="0" x2="22.333" y2="44" gradientUnits="userSpaceOnUse">
<stop stop-color="#6C63FF"/>
<stop offset="1" stop-color="#2564EA"/>
</linearGradient>
</defs>
</svg>
