<svg width="44" height="44" viewBox="0 0 44 44" fill="none" xmlns="http://www.w3.org/2000/svg">
<rect width="44" height="44" rx="9.77778" fill="url(#paint0_linear_2026_1627)"/>
<g clip-path="url(#clip0_2026_1627)">
<path fill-rule="evenodd" clip-rule="evenodd" d="M31.0624 7.5C29.8925 7.4997 28.7537 7.87673 27.8151 8.57511C26.8765 9.27348 26.1882 10.2559 25.8524 11.3766C25.5166 12.4973 25.5511 13.6964 25.951 14.7958C26.3508 15.8953 27.0946 16.8365 28.0718 17.4796C27.706 18.4329 27.2316 19.3409 26.6581 20.1857C26.2593 20.7657 25.8026 21.3366 25.2081 22.0435C24.7009 21.9518 24.1782 22.0052 23.7001 22.1976C22.6868 21.4311 21.612 20.7497 20.4865 20.1603C19.2902 19.5441 18.0106 19.0438 16.4718 18.5816C16.3699 18.2023 16.1871 17.8496 15.9358 17.5477C15.6846 17.2459 15.371 17.002 15.0165 16.8329C14.662 16.6639 14.2751 16.5736 13.8824 16.5684C13.4897 16.5632 13.1005 16.6431 12.7416 16.8026C12.3827 16.9622 12.0627 17.1976 11.8035 17.4927C11.5443 17.7877 11.3521 18.1355 11.2402 18.5119C11.1282 18.8884 11.0992 19.2846 11.155 19.6733C11.2108 20.0621 11.3502 20.4341 11.5636 20.7639C9.93231 24.2711 9.32331 27.3016 9.00975 31.3453C8.47353 31.6111 8.04001 32.0464 7.77642 32.5837C7.51283 33.121 7.43391 33.7303 7.55189 34.3171C7.66986 34.9038 7.97815 35.4352 8.42894 35.8289C8.87972 36.2226 9.44781 36.4565 10.0451 36.4944C10.6424 36.5323 11.2355 36.3721 11.7324 36.0385C12.2294 35.705 12.6024 35.2168 12.7936 34.6497C12.9848 34.0826 12.9835 33.4682 12.7899 32.9019C12.5964 32.3356 12.2214 31.8489 11.7231 31.5174C12.0167 27.7656 12.5641 25.0831 13.9887 21.9964C14.6792 21.9601 15.3027 21.6647 15.7631 21.2079C17.1461 21.6248 18.2408 22.0616 19.2413 22.5782C20.2159 23.0891 21.147 23.679 22.0253 24.3418C21.9686 24.7498 22.0053 25.1655 22.1328 25.5573C22.2602 25.949 22.475 26.3067 22.761 26.6033C23.047 26.8999 23.3966 27.1276 23.7835 27.2693C24.1704 27.4109 24.5844 27.4627 24.9943 27.4209C25.4042 27.379 25.7992 27.2446 26.1495 27.0277C26.4997 26.8108 26.7962 26.5171 27.0163 26.1688C27.2364 25.8206 27.3745 25.4268 27.4202 25.0174C27.4658 24.6079 27.4178 24.1934 27.2797 23.8053C27.9105 23.0531 28.4398 22.3933 28.9001 21.7245C29.5798 20.7313 30.1054 19.7253 30.6474 18.3587C31.3772 18.4153 32.111 18.324 32.8047 18.0903C33.4984 17.8565 34.1377 17.4851 34.6844 16.9982C35.2311 16.5114 35.6738 15.9192 35.9861 15.2571C36.2984 14.595 36.4738 13.8767 36.5017 13.1452C36.5297 12.4137 36.4097 11.6841 36.1488 11.0001C35.888 10.3161 35.4918 9.69182 34.9838 9.16467C34.4759 8.63753 33.8668 8.21836 33.193 7.93232C32.5191 7.64627 31.7945 7.49923 31.0624 7.5ZM28.3437 12.9375C28.3437 12.2164 28.6301 11.5249 29.14 11.0151C29.6499 10.5052 30.3414 10.2188 31.0624 10.2188C31.7835 10.2188 32.475 10.5052 32.9849 11.0151C33.4947 11.5249 33.7812 12.2164 33.7812 12.9375C33.7812 13.6586 33.4947 14.3501 32.9849 14.86C32.475 15.3698 31.7835 15.6563 31.0624 15.6563C30.3414 15.6563 29.6499 15.3698 29.14 14.86C28.6301 14.3501 28.3437 13.6586 28.3437 12.9375Z" fill="white"/>
</g>
<defs>
<linearGradient id="paint0_linear_2026_1627" x1="22" y1="0" x2="22" y2="44" gradientUnits="userSpaceOnUse">
<stop stop-color="#6C63FF"/>
<stop offset="1" stop-color="#2564EA"/>
</linearGradient>
<clipPath id="clip0_2026_1627">
<rect width="29" height="29" fill="white" transform="translate(7.5 7.5)"/>
</clipPath>
</defs>
</svg>
