<svg width="45" height="44" viewBox="0 0 45 44" fill="none" xmlns="http://www.w3.org/2000/svg">
<rect x="0.333008" width="44" height="44" rx="9.77778" fill="url(#paint0_linear_256_1417)"/>
<path d="M18.708 14.75C18.708 16.752 20.3309 18.375 22.333 18.375C24.3351 18.375 25.958 16.752 25.958 14.75C25.958 12.748 24.3351 11.125 22.333 11.125C20.3309 11.125 18.708 12.748 18.708 14.75Z" fill="white"/>
<path d="M10.8535 29.25C10.8535 31.2521 12.4765 32.875 14.4785 32.875C16.4805 32.875 18.1035 31.2521 18.1035 29.25C18.1035 27.2479 16.4805 25.625 14.4785 25.625C12.4765 25.625 10.8535 27.2479 10.8535 29.25Z" fill="white"/>
<path d="M30.1875 32.875C28.1854 32.875 26.5625 31.2521 26.5625 29.25C26.5625 27.2479 28.1854 25.625 30.1875 25.625C32.1896 25.625 33.8125 27.2479 33.8125 29.25C33.8125 31.2521 32.1896 32.875 30.1875 32.875Z" fill="white"/>
<path d="M16.5383 16.638C16.9136 16.3068 16.9493 15.7341 16.6181 15.3588C16.2869 14.9836 15.7142 14.9479 15.3389 15.279C13.1454 17.2151 11.7598 20.0505 11.7598 23.2085C11.7598 23.709 12.1655 24.1148 12.666 24.1148C13.1665 24.1148 13.5723 23.709 13.5723 23.2085C13.5723 20.5921 14.7181 18.2445 16.5383 16.638Z" fill="white"/>
<path d="M29.3262 15.279C28.9511 14.9479 28.3783 14.9836 28.0471 15.3588C27.7159 15.7341 27.7517 16.3068 28.1269 16.638C29.9471 18.2445 31.0929 20.5921 31.0929 23.2085C31.0929 23.709 31.4987 24.1148 31.9992 24.1148C32.4997 24.1148 32.9054 23.709 32.9054 23.2085C32.9054 20.0505 31.5197 17.2151 29.3262 15.279Z" fill="white"/>
<path d="M20.1421 31.6929C19.6574 31.5681 19.1633 31.8599 19.0386 32.3446C18.9138 32.8293 19.2056 33.3234 19.6903 33.4481C20.536 33.6658 21.4216 33.7813 22.3329 33.7813C23.2442 33.7813 24.1298 33.6658 24.9754 33.4481C25.4602 33.3234 25.752 32.8293 25.6272 32.3446C25.5025 31.8599 25.0084 31.5681 24.5237 31.6929C23.8245 31.8728 23.0905 31.9688 22.3329 31.9688C21.5753 31.9688 20.8413 31.8728 20.1421 31.6929Z" fill="white"/>
<defs>
<linearGradient id="paint0_linear_256_1417" x1="22.333" y1="0" x2="22.333" y2="44" gradientUnits="userSpaceOnUse">
<stop stop-color="#6C63FF"/>
<stop offset="1" stop-color="#2564EA"/>
</linearGradient>
</defs>
</svg>
