<svg width="377" height="54" viewBox="0 0 377 54" fill="none" xmlns="http://www.w3.org/2000/svg">
<mask id="mask0_256_1875" style="mask-type:luminance" maskUnits="userSpaceOnUse" x="0" y="0" width="377" height="54">
<path d="M376.582 0.433594H0V53.5654H376.582V0.433594Z" fill="white"/>
</mask>
<g mask="url(#mask0_256_1875)">
<mask id="mask1_256_1875" style="mask-type:luminance" maskUnits="userSpaceOnUse" x="0" y="0" width="40" height="54">
<path d="M39.5168 0.433594H0V53.5654H39.5168V0.433594Z" fill="white"/>
</mask>
<g mask="url(#mask1_256_1875)">
<path d="M38.66 10.3958C36.6145 4.59116 31.0755 0.433594 24.5735 0.433594H0C0 5.93274 4.45643 10.3958 9.96221 10.3958C10.1415 10.3958 10.3209 10.3892 10.4935 10.3825C10.4869 10.3892 10.4802 10.3892 10.4869 10.3958H24.5735C27.323 10.3958 29.5546 12.6207 29.5546 15.3769C29.5546 18.1331 27.323 20.358 24.5735 20.358H14.6112C13.2497 20.358 11.9547 20.6303 10.7791 21.1218C7.17944 22.6228 4.64903 26.176 4.64903 30.3202V53.5654C10.1482 53.5654 14.6112 49.1023 14.6112 43.6032V35.3013C14.6112 32.5518 16.8428 30.3202 19.5924 30.3202H24.5735C31.0755 30.3202 36.6078 26.1627 38.66 20.358C39.2179 18.8039 39.5168 17.1236 39.5168 15.3769C39.5168 13.6302 39.2179 11.9566 38.66 10.3958Z" fill="#2564EA"/>
<path d="M26.6533 36.5891L22.2366 34.0388C20.3238 32.9363 17.9263 34.3178 17.9263 36.5294V37.4193H22.5487C22.5487 39.2524 21.061 40.7401 19.228 40.7401H17.9263V41.63C17.9263 43.8416 20.3172 45.2231 22.2366 44.1206L26.6533 41.5702C28.566 40.4678 28.566 37.6983 26.6533 36.5958V36.5891Z" fill="#2564EA"/>
</g>
<path d="M81.252 13.5892C83.1374 15.4443 84.08 18.1812 84.08 21.8C84.08 25.4187 83.1374 28.171 81.252 30.0563C79.3969 31.9114 76.7664 32.8388 73.3604 32.8388H67.111V43.2394H60.7705V10.761H73.3604C76.7664 10.761 79.3969 11.7038 81.252 13.5892ZM77.7395 21.8C77.7395 18.2115 76.1734 16.4173 73.041 16.4173H67.111V27.137H73.041C74.5617 27.137 75.7173 26.7266 76.5079 25.9054C77.329 25.0843 77.7395 23.7158 77.7395 21.8ZM114.046 43.2394H107.432L105.608 37.6287H94.7055L92.9264 43.2394H86.312L96.7126 13.4979C97.1687 12.4639 97.6703 11.7494 98.2178 11.354C98.7954 10.9586 99.4951 10.761 100.316 10.761C101.137 10.761 101.791 10.9435 102.278 11.3084C102.795 11.6733 103.251 12.4032 103.646 13.4979L114.046 43.2394ZM104.148 32.2916L100.316 19.428L96.3019 32.2916H104.148ZM134.924 30.6493H140.809C140.809 34.7853 139.775 37.9631 137.707 40.183C135.639 42.4031 132.719 43.513 128.949 43.513C120.647 43.513 116.496 38.6321 116.496 28.8704V26.1333C116.496 18.4395 118.624 13.6196 122.882 11.6733C124.554 10.8827 126.577 10.4873 128.949 10.4873C132.416 10.4873 135.228 11.4452 137.388 13.3611C139.577 15.2465 140.672 17.9834 140.672 21.5719H134.742C134.407 19.7777 133.814 18.4244 132.963 17.5121C132.111 16.5998 130.774 16.1436 128.949 16.1436C126.82 16.1436 125.239 16.8127 124.205 18.1507C123.475 19.0935 123.049 20.7052 122.928 22.986C122.867 23.7158 122.836 24.7042 122.836 25.9511V28.779C122.836 32.2764 123.323 34.6637 124.296 35.9407C125.3 37.218 126.851 37.8566 128.949 37.8566C131.077 37.8566 132.537 37.2788 133.328 36.1232C134.149 34.9373 134.681 33.1127 134.924 30.6493ZM167.604 43.2394H156.109C152.46 43.2394 149.89 42.6159 148.4 41.3692C146.94 40.0919 146.211 37.8566 146.211 34.6637V10.761H167.604V16.4173H152.551V24.0351H163.088L162.632 29.6916H152.551V34.2075C152.551 35.4845 152.84 36.3665 153.418 36.8532C153.996 37.3396 155.045 37.583 156.565 37.583H167.604V43.2394Z" fill="white"/>
<path d="M195.221 16.4173H183.771C182.434 16.4173 181.491 16.6759 180.943 17.1928C180.427 17.7097 180.168 18.6069 180.168 19.8841V24.4001H192.073L191.617 30.0563H180.168V43.2394H173.827V17.3753C173.827 14.9728 174.345 13.2698 175.378 12.2663C176.444 11.2628 178.252 10.761 180.806 10.761H195.221V16.4173ZM220.76 43.2394H211.089C207.44 43.2394 204.794 42.5399 203.152 41.141C201.541 39.7117 200.734 37.4005 200.734 34.2075V10.761H207.075V34.2075C207.075 35.4845 207.363 36.3665 207.941 36.8532C208.52 37.3396 209.569 37.583 211.089 37.583H220.76V43.2394ZM249.626 25.4948V27.9582C249.626 33.4015 248.591 37.3548 246.524 39.8182C244.486 42.2814 241.201 43.513 236.671 43.513C232.139 43.513 228.854 42.2814 226.818 39.8182C224.811 37.3548 223.807 33.3558 223.807 27.8213V25.4492C223.807 20.401 224.825 16.6454 226.864 14.1822C228.931 11.7189 232.184 10.4873 236.625 10.4873C241.096 10.4873 244.38 11.7341 246.478 14.2278C248.577 16.7215 249.626 20.4771 249.626 25.4948ZM243.285 27.8213V26.1333C243.285 23.214 242.92 20.8877 242.191 19.1543C241.338 17.1472 239.514 16.1436 236.717 16.1436C233.888 16.1436 232.047 17.1472 231.197 19.1543C230.496 20.7964 230.148 23.1228 230.148 26.1333V27.8213C230.148 31.7441 230.695 34.3898 231.79 35.7584C232.215 36.3362 232.839 36.8381 233.66 37.2637C234.511 37.659 235.514 37.8566 236.671 37.8566C237.857 37.8566 238.86 37.659 239.682 37.2637C240.503 36.8684 241.141 36.3819 241.598 35.8039C242.054 35.2261 242.402 34.466 242.647 33.5232C243.072 32.0331 243.285 30.1326 243.285 27.8213ZM291.571 10.761L282.86 43.2394H277.568L271.591 23.5334L265.616 43.2394H260.325L251.658 10.761H258.272L263.29 31.2425L268.262 14.319C268.809 11.795 269.965 10.5329 271.729 10.5329C272.611 10.5329 273.28 10.8674 273.735 11.5365C274.192 12.1751 274.603 13.1025 274.967 14.319L279.893 31.2425L284.956 10.761H291.571Z" fill="#2564EA"/>
</g>
</svg>
