<svg width="2250" height="1951" viewBox="0 0 2250 1951" fill="none" xmlns="http://www.w3.org/2000/svg">
<g opacity="0.5" filter="url(#filter0_f_2021_1626)">
<circle cx="576.5" cy="1374.5" r="176.5" fill="#D2F801" fill-opacity="0.34"/>
</g>
<g opacity="0.5" filter="url(#filter1_f_2021_1626)">
<circle cx="886.5" cy="864.5" r="176.5" fill="#D2F801" fill-opacity="0.34"/>
</g>
<g opacity="0.5" filter="url(#filter2_f_2021_1626)">
<circle cx="1724.42" cy="524.908" r="124.908" fill="#D2F801"/>
</g>
<g opacity="0.5" clip-path="url(#clip0_2021_1626)">
<mask id="mask0_2021_1626" style="mask-type:alpha" maskUnits="userSpaceOnUse" x="435" y="569" width="1440" height="1441">
<rect width="1440" height="1197" transform="translate(435 569.005)" fill="url(#paint0_radial_2021_1626)"/>
</mask>
<g mask="url(#mask0_2021_1626)">
<g clip-path="url(#clip1_2021_1626)">
<mask id="path-6-inside-1_2021_1626" fill="white">
<path d="M387 569.005H483V665.005H387V569.005Z"/>
</mask>
<path d="M483 665.005V666.005H484V665.005H483ZM482 569.005V665.005H484V569.005H482ZM483 664.005H387V666.005H483V664.005Z" fill="#D0D5DD" fill-opacity="0.32" mask="url(#path-6-inside-1_2021_1626)"/>
<mask id="path-8-inside-2_2021_1626" fill="white">
<path d="M483 569.005H579V665.005H483V569.005Z"/>
</mask>
<path d="M579 665.005V666.005H580V665.005H579ZM578 569.005V665.005H580V569.005H578ZM579 664.005H483V666.005H579V664.005Z" fill="#D0D5DD" fill-opacity="0.32" mask="url(#path-8-inside-2_2021_1626)"/>
<mask id="path-10-inside-3_2021_1626" fill="white">
<path d="M579 569.005H675V665.005H579V569.005Z"/>
</mask>
<path d="M675 665.005V666.005H676V665.005H675ZM674 569.005V665.005H676V569.005H674ZM675 664.005H579V666.005H675V664.005Z" fill="#D0D5DD" fill-opacity="0.32" mask="url(#path-10-inside-3_2021_1626)"/>
<mask id="path-12-inside-4_2021_1626" fill="white">
<path d="M675 569.005H771V665.005H675V569.005Z"/>
</mask>
<path d="M771 665.005V666.005H772V665.005H771ZM770 569.005V665.005H772V569.005H770ZM771 664.005H675V666.005H771V664.005Z" fill="#D0D5DD" fill-opacity="0.32" mask="url(#path-12-inside-4_2021_1626)"/>
<mask id="path-14-inside-5_2021_1626" fill="white">
<path d="M771 569.005H867V665.005H771V569.005Z"/>
</mask>
<path d="M867 665.005V666.005H868V665.005H867ZM866 569.005V665.005H868V569.005H866ZM867 664.005H771V666.005H867V664.005Z" fill="#D0D5DD" fill-opacity="0.32" mask="url(#path-14-inside-5_2021_1626)"/>
<mask id="path-16-inside-6_2021_1626" fill="white">
<path d="M867 569.005H963V665.005H867V569.005Z"/>
</mask>
<path d="M963 665.005V666.005H964V665.005H963ZM962 569.005V665.005H964V569.005H962ZM963 664.005H867V666.005H963V664.005Z" fill="#D0D5DD" fill-opacity="0.32" mask="url(#path-16-inside-6_2021_1626)"/>
<mask id="path-18-inside-7_2021_1626" fill="white">
<path d="M963 569.005H1059V665.005H963V569.005Z"/>
</mask>
<path d="M1059 665.005V666.005H1060V665.005H1059ZM1058 569.005V665.005H1060V569.005H1058ZM1059 664.005H963V666.005H1059V664.005Z" fill="#D0D5DD" fill-opacity="0.32" mask="url(#path-18-inside-7_2021_1626)"/>
<mask id="path-20-inside-8_2021_1626" fill="white">
<path d="M1059 569.005H1155V665.005H1059V569.005Z"/>
</mask>
<path d="M1155 665.005V666.005H1156V665.005H1155ZM1154 569.005V665.005H1156V569.005H1154ZM1155 664.005H1059V666.005H1155V664.005Z" fill="#D0D5DD" fill-opacity="0.32" mask="url(#path-20-inside-8_2021_1626)"/>
<mask id="path-22-inside-9_2021_1626" fill="white">
<path d="M1155 569.005H1251V665.005H1155V569.005Z"/>
</mask>
<path d="M1251 665.005V666.005H1252V665.005H1251ZM1250 569.005V665.005H1252V569.005H1250ZM1251 664.005H1155V666.005H1251V664.005Z" fill="#D0D5DD" fill-opacity="0.32" mask="url(#path-22-inside-9_2021_1626)"/>
<mask id="path-24-inside-10_2021_1626" fill="white">
<path d="M1251 569.005H1347V665.005H1251V569.005Z"/>
</mask>
<path d="M1347 665.005V666.005H1348V665.005H1347ZM1346 569.005V665.005H1348V569.005H1346ZM1347 664.005H1251V666.005H1347V664.005Z" fill="#D0D5DD" fill-opacity="0.32" mask="url(#path-24-inside-10_2021_1626)"/>
<mask id="path-26-inside-11_2021_1626" fill="white">
<path d="M1347 569.005H1443V665.005H1347V569.005Z"/>
</mask>
<path d="M1443 665.005V666.005H1444V665.005H1443ZM1442 569.005V665.005H1444V569.005H1442ZM1443 664.005H1347V666.005H1443V664.005Z" fill="#D0D5DD" fill-opacity="0.32" mask="url(#path-26-inside-11_2021_1626)"/>
<mask id="path-28-inside-12_2021_1626" fill="white">
<path d="M1443 569.005H1539V665.005H1443V569.005Z"/>
</mask>
<path d="M1539 665.005V666.005H1540V665.005H1539ZM1538 569.005V665.005H1540V569.005H1538ZM1539 664.005H1443V666.005H1539V664.005Z" fill="#D0D5DD" fill-opacity="0.32" mask="url(#path-28-inside-12_2021_1626)"/>
<mask id="path-30-inside-13_2021_1626" fill="white">
<path d="M1539 569.005H1635V665.005H1539V569.005Z"/>
</mask>
<path d="M1635 665.005V666.005H1636V665.005H1635ZM1634 569.005V665.005H1636V569.005H1634ZM1635 664.005H1539V666.005H1635V664.005Z" fill="#D0D5DD" fill-opacity="0.32" mask="url(#path-30-inside-13_2021_1626)"/>
<mask id="path-32-inside-14_2021_1626" fill="white">
<path d="M1635 569.005H1731V665.005H1635V569.005Z"/>
</mask>
<path d="M1731 665.005V666.005H1732V665.005H1731ZM1730 569.005V665.005H1732V569.005H1730ZM1731 664.005H1635V666.005H1731V664.005Z" fill="#D0D5DD" fill-opacity="0.32" mask="url(#path-32-inside-14_2021_1626)"/>
<mask id="path-34-inside-15_2021_1626" fill="white">
<path d="M1731 569.005H1827V665.005H1731V569.005Z"/>
</mask>
<path d="M1827 665.005V666.005H1828V665.005H1827ZM1826 569.005V665.005H1828V569.005H1826ZM1827 664.005H1731V666.005H1827V664.005Z" fill="#D0D5DD" fill-opacity="0.32" mask="url(#path-34-inside-15_2021_1626)"/>
<mask id="path-36-inside-16_2021_1626" fill="white">
<path d="M1827 569.005H1923V665.005H1827V569.005Z"/>
</mask>
<path d="M1923 665.005V666.005H1924V665.005H1923ZM1922 569.005V665.005H1924V569.005H1922ZM1923 664.005H1827V666.005H1923V664.005Z" fill="#D0D5DD" fill-opacity="0.32" mask="url(#path-36-inside-16_2021_1626)"/>
<mask id="path-38-inside-17_2021_1626" fill="white">
<path d="M387 665.005H483V761.005H387V665.005Z"/>
</mask>
<path d="M483 761.005V762.005H484V761.005H483ZM482 665.005V761.005H484V665.005H482ZM483 760.005H387V762.005H483V760.005Z" fill="#D0D5DD" fill-opacity="0.32" mask="url(#path-38-inside-17_2021_1626)"/>
<mask id="path-40-inside-18_2021_1626" fill="white">
<path d="M483 665.005H579V761.005H483V665.005Z"/>
</mask>
<path d="M579 761.005V762.005H580V761.005H579ZM578 665.005V761.005H580V665.005H578ZM579 760.005H483V762.005H579V760.005Z" fill="#D0D5DD" fill-opacity="0.32" mask="url(#path-40-inside-18_2021_1626)"/>
<mask id="path-42-inside-19_2021_1626" fill="white">
<path d="M579 665.005H675V761.005H579V665.005Z"/>
</mask>
<path d="M675 761.005V762.005H676V761.005H675ZM674 665.005V761.005H676V665.005H674ZM675 760.005H579V762.005H675V760.005Z" fill="#D0D5DD" fill-opacity="0.32" mask="url(#path-42-inside-19_2021_1626)"/>
<mask id="path-44-inside-20_2021_1626" fill="white">
<path d="M675 665.005H771V761.005H675V665.005Z"/>
</mask>
<path d="M675 665.005H771V761.005H675V665.005Z" fill="#F2F4F7" fill-opacity="0.1"/>
<path d="M771 761.005V762.005H772V761.005H771ZM770 665.005V761.005H772V665.005H770ZM771 760.005H675V762.005H771V760.005Z" fill="#D0D5DD" fill-opacity="0.32" mask="url(#path-44-inside-20_2021_1626)"/>
<mask id="path-46-inside-21_2021_1626" fill="white">
<path d="M771 665.005H867V761.005H771V665.005Z"/>
</mask>
<path d="M867 761.005V762.005H868V761.005H867ZM866 665.005V761.005H868V665.005H866ZM867 760.005H771V762.005H867V760.005Z" fill="#D0D5DD" fill-opacity="0.32" mask="url(#path-46-inside-21_2021_1626)"/>
<mask id="path-48-inside-22_2021_1626" fill="white">
<path d="M867 665.005H963V761.005H867V665.005Z"/>
</mask>
<path d="M963 761.005V762.005H964V761.005H963ZM962 665.005V761.005H964V665.005H962ZM963 760.005H867V762.005H963V760.005Z" fill="#D0D5DD" fill-opacity="0.32" mask="url(#path-48-inside-22_2021_1626)"/>
<mask id="path-50-inside-23_2021_1626" fill="white">
<path d="M963 665.005H1059V761.005H963V665.005Z"/>
</mask>
<path d="M1059 761.005V762.005H1060V761.005H1059ZM1058 665.005V761.005H1060V665.005H1058ZM1059 760.005H963V762.005H1059V760.005Z" fill="#D0D5DD" fill-opacity="0.32" mask="url(#path-50-inside-23_2021_1626)"/>
<mask id="path-52-inside-24_2021_1626" fill="white">
<path d="M1059 665.005H1155V761.005H1059V665.005Z"/>
</mask>
<path d="M1155 761.005V762.005H1156V761.005H1155ZM1154 665.005V761.005H1156V665.005H1154ZM1155 760.005H1059V762.005H1155V760.005Z" fill="#D0D5DD" fill-opacity="0.32" mask="url(#path-52-inside-24_2021_1626)"/>
<mask id="path-54-inside-25_2021_1626" fill="white">
<path d="M1155 665.005H1251V761.005H1155V665.005Z"/>
</mask>
<path d="M1251 761.005V762.005H1252V761.005H1251ZM1250 665.005V761.005H1252V665.005H1250ZM1251 760.005H1155V762.005H1251V760.005Z" fill="#D0D5DD" fill-opacity="0.32" mask="url(#path-54-inside-25_2021_1626)"/>
<mask id="path-56-inside-26_2021_1626" fill="white">
<path d="M1251 665.005H1347V761.005H1251V665.005Z"/>
</mask>
<path d="M1347 761.005V762.005H1348V761.005H1347ZM1346 665.005V761.005H1348V665.005H1346ZM1347 760.005H1251V762.005H1347V760.005Z" fill="#D0D5DD" fill-opacity="0.32" mask="url(#path-56-inside-26_2021_1626)"/>
<mask id="path-58-inside-27_2021_1626" fill="white">
<path d="M1347 665.005H1443V761.005H1347V665.005Z"/>
</mask>
<path d="M1443 761.005V762.005H1444V761.005H1443ZM1442 665.005V761.005H1444V665.005H1442ZM1443 760.005H1347V762.005H1443V760.005Z" fill="#D0D5DD" fill-opacity="0.32" mask="url(#path-58-inside-27_2021_1626)"/>
<mask id="path-60-inside-28_2021_1626" fill="white">
<path d="M1443 665.005H1539V761.005H1443V665.005Z"/>
</mask>
<path d="M1539 761.005V762.005H1540V761.005H1539ZM1538 665.005V761.005H1540V665.005H1538ZM1539 760.005H1443V762.005H1539V760.005Z" fill="#D0D5DD" fill-opacity="0.32" mask="url(#path-60-inside-28_2021_1626)"/>
<mask id="path-62-inside-29_2021_1626" fill="white">
<path d="M1539 665.005H1635V761.005H1539V665.005Z"/>
</mask>
<path d="M1539 665.005H1635V761.005H1539V665.005Z" fill="#F2F4F7" fill-opacity="0.1"/>
<path d="M1635 761.005V762.005H1636V761.005H1635ZM1634 665.005V761.005H1636V665.005H1634ZM1635 760.005H1539V762.005H1635V760.005Z" fill="#D0D5DD" fill-opacity="0.32" mask="url(#path-62-inside-29_2021_1626)"/>
<mask id="path-64-inside-30_2021_1626" fill="white">
<path d="M1635 665.005H1731V761.005H1635V665.005Z"/>
</mask>
<path d="M1731 761.005V762.005H1732V761.005H1731ZM1730 665.005V761.005H1732V665.005H1730ZM1731 760.005H1635V762.005H1731V760.005Z" fill="#D0D5DD" fill-opacity="0.32" mask="url(#path-64-inside-30_2021_1626)"/>
<mask id="path-66-inside-31_2021_1626" fill="white">
<path d="M1731 665.005H1827V761.005H1731V665.005Z"/>
</mask>
<path d="M1827 761.005V762.005H1828V761.005H1827ZM1826 665.005V761.005H1828V665.005H1826ZM1827 760.005H1731V762.005H1827V760.005Z" fill="#D0D5DD" fill-opacity="0.32" mask="url(#path-66-inside-31_2021_1626)"/>
<mask id="path-68-inside-32_2021_1626" fill="white">
<path d="M1827 665.005H1923V761.005H1827V665.005Z"/>
</mask>
<path d="M1923 761.005V762.005H1924V761.005H1923ZM1922 665.005V761.005H1924V665.005H1922ZM1923 760.005H1827V762.005H1923V760.005Z" fill="#D0D5DD" fill-opacity="0.32" mask="url(#path-68-inside-32_2021_1626)"/>
<mask id="path-70-inside-33_2021_1626" fill="white">
<path d="M387 761.005H483V857.005H387V761.005Z"/>
</mask>
<path d="M483 857.005V858.005H484V857.005H483ZM482 761.005V857.005H484V761.005H482ZM483 856.005H387V858.005H483V856.005Z" fill="#D0D5DD" fill-opacity="0.32" mask="url(#path-70-inside-33_2021_1626)"/>
<mask id="path-72-inside-34_2021_1626" fill="white">
<path d="M483 761.005H579V857.005H483V761.005Z"/>
</mask>
<path d="M579 857.005V858.005H580V857.005H579ZM578 761.005V857.005H580V761.005H578ZM579 856.005H483V858.005H579V856.005Z" fill="#D0D5DD" fill-opacity="0.32" mask="url(#path-72-inside-34_2021_1626)"/>
<mask id="path-74-inside-35_2021_1626" fill="white">
<path d="M579 761.005H675V857.005H579V761.005Z"/>
</mask>
<path d="M675 857.005V858.005H676V857.005H675ZM674 761.005V857.005H676V761.005H674ZM675 856.005H579V858.005H675V856.005Z" fill="#D0D5DD" fill-opacity="0.32" mask="url(#path-74-inside-35_2021_1626)"/>
<mask id="path-76-inside-36_2021_1626" fill="white">
<path d="M675 761.005H771V857.005H675V761.005Z"/>
</mask>
<path d="M771 857.005V858.005H772V857.005H771ZM770 761.005V857.005H772V761.005H770ZM771 856.005H675V858.005H771V856.005Z" fill="#D0D5DD" fill-opacity="0.32" mask="url(#path-76-inside-36_2021_1626)"/>
<mask id="path-78-inside-37_2021_1626" fill="white">
<path d="M771 761.005H867V857.005H771V761.005Z"/>
</mask>
<path d="M867 857.005V858.005H868V857.005H867ZM866 761.005V857.005H868V761.005H866ZM867 856.005H771V858.005H867V856.005Z" fill="#D0D5DD" fill-opacity="0.32" mask="url(#path-78-inside-37_2021_1626)"/>
<mask id="path-80-inside-38_2021_1626" fill="white">
<path d="M867 761.005H963V857.005H867V761.005Z"/>
</mask>
<path d="M867 761.005H963V857.005H867V761.005Z" fill="#F2F4F7" fill-opacity="0.1"/>
<path d="M963 857.005V858.005H964V857.005H963ZM962 761.005V857.005H964V761.005H962ZM963 856.005H867V858.005H963V856.005Z" fill="#D0D5DD" fill-opacity="0.32" mask="url(#path-80-inside-38_2021_1626)"/>
<mask id="path-82-inside-39_2021_1626" fill="white">
<path d="M963 761.005H1059V857.005H963V761.005Z"/>
</mask>
<path d="M1059 857.005V858.005H1060V857.005H1059ZM1058 761.005V857.005H1060V761.005H1058ZM1059 856.005H963V858.005H1059V856.005Z" fill="#D0D5DD" fill-opacity="0.32" mask="url(#path-82-inside-39_2021_1626)"/>
<mask id="path-84-inside-40_2021_1626" fill="white">
<path d="M1059 761.005H1155V857.005H1059V761.005Z"/>
</mask>
<path d="M1155 857.005V858.005H1156V857.005H1155ZM1154 761.005V857.005H1156V761.005H1154ZM1155 856.005H1059V858.005H1155V856.005Z" fill="#D0D5DD" fill-opacity="0.32" mask="url(#path-84-inside-40_2021_1626)"/>
<mask id="path-86-inside-41_2021_1626" fill="white">
<path d="M1155 761.005H1251V857.005H1155V761.005Z"/>
</mask>
<path d="M1251 857.005V858.005H1252V857.005H1251ZM1250 761.005V857.005H1252V761.005H1250ZM1251 856.005H1155V858.005H1251V856.005Z" fill="#D0D5DD" fill-opacity="0.32" mask="url(#path-86-inside-41_2021_1626)"/>
<mask id="path-88-inside-42_2021_1626" fill="white">
<path d="M1251 761.005H1347V857.005H1251V761.005Z"/>
</mask>
<path d="M1251 761.005H1347V857.005H1251V761.005Z" fill="#F2F4F7" fill-opacity="0.1"/>
<path d="M1347 857.005V858.005H1348V857.005H1347ZM1346 761.005V857.005H1348V761.005H1346ZM1347 856.005H1251V858.005H1347V856.005Z" fill="#D0D5DD" fill-opacity="0.32" mask="url(#path-88-inside-42_2021_1626)"/>
<mask id="path-90-inside-43_2021_1626" fill="white">
<path d="M1347 761.005H1443V857.005H1347V761.005Z"/>
</mask>
<path d="M1443 857.005V858.005H1444V857.005H1443ZM1442 761.005V857.005H1444V761.005H1442ZM1443 856.005H1347V858.005H1443V856.005Z" fill="#D0D5DD" fill-opacity="0.32" mask="url(#path-90-inside-43_2021_1626)"/>
<mask id="path-92-inside-44_2021_1626" fill="white">
<path d="M1443 761.005H1539V857.005H1443V761.005Z"/>
</mask>
<path d="M1539 857.005V858.005H1540V857.005H1539ZM1538 761.005V857.005H1540V761.005H1538ZM1539 856.005H1443V858.005H1539V856.005Z" fill="#D0D5DD" fill-opacity="0.32" mask="url(#path-92-inside-44_2021_1626)"/>
<mask id="path-94-inside-45_2021_1626" fill="white">
<path d="M1539 761.005H1635V857.005H1539V761.005Z"/>
</mask>
<path d="M1635 857.005V858.005H1636V857.005H1635ZM1634 761.005V857.005H1636V761.005H1634ZM1635 856.005H1539V858.005H1635V856.005Z" fill="#D0D5DD" fill-opacity="0.32" mask="url(#path-94-inside-45_2021_1626)"/>
<mask id="path-96-inside-46_2021_1626" fill="white">
<path d="M1635 761.005H1731V857.005H1635V761.005Z"/>
</mask>
<path d="M1731 857.005V858.005H1732V857.005H1731ZM1730 761.005V857.005H1732V761.005H1730ZM1731 856.005H1635V858.005H1731V856.005Z" fill="#D0D5DD" fill-opacity="0.32" mask="url(#path-96-inside-46_2021_1626)"/>
<mask id="path-98-inside-47_2021_1626" fill="white">
<path d="M1731 761.005H1827V857.005H1731V761.005Z"/>
</mask>
<path d="M1827 857.005V858.005H1828V857.005H1827ZM1826 761.005V857.005H1828V761.005H1826ZM1827 856.005H1731V858.005H1827V856.005Z" fill="#D0D5DD" fill-opacity="0.32" mask="url(#path-98-inside-47_2021_1626)"/>
<mask id="path-100-inside-48_2021_1626" fill="white">
<path d="M1827 761.005H1923V857.005H1827V761.005Z"/>
</mask>
<path d="M1923 857.005V858.005H1924V857.005H1923ZM1922 761.005V857.005H1924V761.005H1922ZM1923 856.005H1827V858.005H1923V856.005Z" fill="#D0D5DD" fill-opacity="0.32" mask="url(#path-100-inside-48_2021_1626)"/>
<mask id="path-102-inside-49_2021_1626" fill="white">
<path d="M387 857.005H483V953.005H387V857.005Z"/>
</mask>
<path d="M387 857.005H483V953.005H387V857.005Z" fill="#F2F4F7" fill-opacity="0.1"/>
<path d="M483 953.005V954.005H484V953.005H483ZM482 857.005V953.005H484V857.005H482ZM483 952.005H387V954.005H483V952.005Z" fill="#D0D5DD" fill-opacity="0.32" mask="url(#path-102-inside-49_2021_1626)"/>
<mask id="path-104-inside-50_2021_1626" fill="white">
<path d="M483 857.005H579V953.005H483V857.005Z"/>
</mask>
<path d="M579 953.005V954.005H580V953.005H579ZM578 857.005V953.005H580V857.005H578ZM579 952.005H483V954.005H579V952.005Z" fill="#D0D5DD" fill-opacity="0.32" mask="url(#path-104-inside-50_2021_1626)"/>
<mask id="path-106-inside-51_2021_1626" fill="white">
<path d="M579 857.005H675V953.005H579V857.005Z"/>
</mask>
<path d="M675 953.005V954.005H676V953.005H675ZM674 857.005V953.005H676V857.005H674ZM675 952.005H579V954.005H675V952.005Z" fill="#D0D5DD" fill-opacity="0.32" mask="url(#path-106-inside-51_2021_1626)"/>
<mask id="path-108-inside-52_2021_1626" fill="white">
<path d="M675 857.005H771V953.005H675V857.005Z"/>
</mask>
<path d="M771 953.005V954.005H772V953.005H771ZM770 857.005V953.005H772V857.005H770ZM771 952.005H675V954.005H771V952.005Z" fill="#D0D5DD" fill-opacity="0.32" mask="url(#path-108-inside-52_2021_1626)"/>
<mask id="path-110-inside-53_2021_1626" fill="white">
<path d="M771 857.005H867V953.005H771V857.005Z"/>
</mask>
<path d="M867 953.005V954.005H868V953.005H867ZM866 857.005V953.005H868V857.005H866ZM867 952.005H771V954.005H867V952.005Z" fill="#D0D5DD" fill-opacity="0.32" mask="url(#path-110-inside-53_2021_1626)"/>
<mask id="path-112-inside-54_2021_1626" fill="white">
<path d="M867 857.005H963V953.005H867V857.005Z"/>
</mask>
<path d="M963 953.005V954.005H964V953.005H963ZM962 857.005V953.005H964V857.005H962ZM963 952.005H867V954.005H963V952.005Z" fill="#D0D5DD" fill-opacity="0.32" mask="url(#path-112-inside-54_2021_1626)"/>
<mask id="path-114-inside-55_2021_1626" fill="white">
<path d="M963 857.005H1059V953.005H963V857.005Z"/>
</mask>
<path d="M1059 953.005V954.005H1060V953.005H1059ZM1058 857.005V953.005H1060V857.005H1058ZM1059 952.005H963V954.005H1059V952.005Z" fill="#D0D5DD" fill-opacity="0.32" mask="url(#path-114-inside-55_2021_1626)"/>
<mask id="path-116-inside-56_2021_1626" fill="white">
<path d="M1059 857.005H1155V953.005H1059V857.005Z"/>
</mask>
<path d="M1155 953.005V954.005H1156V953.005H1155ZM1154 857.005V953.005H1156V857.005H1154ZM1155 952.005H1059V954.005H1155V952.005Z" fill="#D0D5DD" fill-opacity="0.32" mask="url(#path-116-inside-56_2021_1626)"/>
<mask id="path-118-inside-57_2021_1626" fill="white">
<path d="M1155 857.005H1251V953.005H1155V857.005Z"/>
</mask>
<path d="M1251 953.005V954.005H1252V953.005H1251ZM1250 857.005V953.005H1252V857.005H1250ZM1251 952.005H1155V954.005H1251V952.005Z" fill="#D0D5DD" fill-opacity="0.32" mask="url(#path-118-inside-57_2021_1626)"/>
<mask id="path-120-inside-58_2021_1626" fill="white">
<path d="M1251 857.005H1347V953.005H1251V857.005Z"/>
</mask>
<path d="M1347 953.005V954.005H1348V953.005H1347ZM1346 857.005V953.005H1348V857.005H1346ZM1347 952.005H1251V954.005H1347V952.005Z" fill="#D0D5DD" fill-opacity="0.32" mask="url(#path-120-inside-58_2021_1626)"/>
<mask id="path-122-inside-59_2021_1626" fill="white">
<path d="M1347 857.005H1443V953.005H1347V857.005Z"/>
</mask>
<path d="M1443 953.005V954.005H1444V953.005H1443ZM1442 857.005V953.005H1444V857.005H1442ZM1443 952.005H1347V954.005H1443V952.005Z" fill="#D0D5DD" fill-opacity="0.32" mask="url(#path-122-inside-59_2021_1626)"/>
<mask id="path-124-inside-60_2021_1626" fill="white">
<path d="M1443 857.005H1539V953.005H1443V857.005Z"/>
</mask>
<path d="M1539 953.005V954.005H1540V953.005H1539ZM1538 857.005V953.005H1540V857.005H1538ZM1539 952.005H1443V954.005H1539V952.005Z" fill="#D0D5DD" fill-opacity="0.32" mask="url(#path-124-inside-60_2021_1626)"/>
<mask id="path-126-inside-61_2021_1626" fill="white">
<path d="M1539 857.005H1635V953.005H1539V857.005Z"/>
</mask>
<path d="M1539 857.005H1635V953.005H1539V857.005Z" fill="#F2F4F7" fill-opacity="0.1"/>
<path d="M1635 953.005V954.005H1636V953.005H1635ZM1634 857.005V953.005H1636V857.005H1634ZM1635 952.005H1539V954.005H1635V952.005Z" fill="#D0D5DD" fill-opacity="0.32" mask="url(#path-126-inside-61_2021_1626)"/>
<mask id="path-128-inside-62_2021_1626" fill="white">
<path d="M1635 857.005H1731V953.005H1635V857.005Z"/>
</mask>
<path d="M1731 953.005V954.005H1732V953.005H1731ZM1730 857.005V953.005H1732V857.005H1730ZM1731 952.005H1635V954.005H1731V952.005Z" fill="#D0D5DD" fill-opacity="0.32" mask="url(#path-128-inside-62_2021_1626)"/>
<mask id="path-130-inside-63_2021_1626" fill="white">
<path d="M1731 857.005H1827V953.005H1731V857.005Z"/>
</mask>
<path d="M1827 953.005V954.005H1828V953.005H1827ZM1826 857.005V953.005H1828V857.005H1826ZM1827 952.005H1731V954.005H1827V952.005Z" fill="#D0D5DD" fill-opacity="0.32" mask="url(#path-130-inside-63_2021_1626)"/>
<mask id="path-132-inside-64_2021_1626" fill="white">
<path d="M1827 857.005H1923V953.005H1827V857.005Z"/>
</mask>
<path d="M1923 953.005V954.005H1924V953.005H1923ZM1922 857.005V953.005H1924V857.005H1922ZM1923 952.005H1827V954.005H1923V952.005Z" fill="#D0D5DD" fill-opacity="0.32" mask="url(#path-132-inside-64_2021_1626)"/>
<mask id="path-134-inside-65_2021_1626" fill="white">
<path d="M387 953.005H483V1049.01H387V953.005Z"/>
</mask>
<path d="M483 1049.01V1050.01H484V1049.01H483ZM482 953.005V1049.01H484V953.005H482ZM483 1048.01H387V1050.01H483V1048.01Z" fill="#D0D5DD" fill-opacity="0.32" mask="url(#path-134-inside-65_2021_1626)"/>
<mask id="path-136-inside-66_2021_1626" fill="white">
<path d="M483 953.005H579V1049.01H483V953.005Z"/>
</mask>
<path d="M579 1049.01V1050.01H580V1049.01H579ZM578 953.005V1049.01H580V953.005H578ZM579 1048.01H483V1050.01H579V1048.01Z" fill="#D0D5DD" fill-opacity="0.32" mask="url(#path-136-inside-66_2021_1626)"/>
<mask id="path-138-inside-67_2021_1626" fill="white">
<path d="M579 953.005H675V1049.01H579V953.005Z"/>
</mask>
<path d="M675 1049.01V1050.01H676V1049.01H675ZM674 953.005V1049.01H676V953.005H674ZM675 1048.01H579V1050.01H675V1048.01Z" fill="#D0D5DD" fill-opacity="0.32" mask="url(#path-138-inside-67_2021_1626)"/>
<mask id="path-140-inside-68_2021_1626" fill="white">
<path d="M675 953.005H771V1049.01H675V953.005Z"/>
</mask>
<path d="M771 1049.01V1050.01H772V1049.01H771ZM770 953.005V1049.01H772V953.005H770ZM771 1048.01H675V1050.01H771V1048.01Z" fill="#D0D5DD" fill-opacity="0.32" mask="url(#path-140-inside-68_2021_1626)"/>
<mask id="path-142-inside-69_2021_1626" fill="white">
<path d="M771 953.005H867V1049.01H771V953.005Z"/>
</mask>
<path d="M867 1049.01V1050.01H868V1049.01H867ZM866 953.005V1049.01H868V953.005H866ZM867 1048.01H771V1050.01H867V1048.01Z" fill="#D0D5DD" fill-opacity="0.32" mask="url(#path-142-inside-69_2021_1626)"/>
<mask id="path-144-inside-70_2021_1626" fill="white">
<path d="M867 953.005H963V1049.01H867V953.005Z"/>
</mask>
<path d="M963 1049.01V1050.01H964V1049.01H963ZM962 953.005V1049.01H964V953.005H962ZM963 1048.01H867V1050.01H963V1048.01Z" fill="#D0D5DD" fill-opacity="0.32" mask="url(#path-144-inside-70_2021_1626)"/>
<mask id="path-146-inside-71_2021_1626" fill="white">
<path d="M963 953.005H1059V1049.01H963V953.005Z"/>
</mask>
<path d="M963 953.005H1059V1049.01H963V953.005Z" fill="#F2F4F7" fill-opacity="0.1"/>
<path d="M1059 1049.01V1050.01H1060V1049.01H1059ZM1058 953.005V1049.01H1060V953.005H1058ZM1059 1048.01H963V1050.01H1059V1048.01Z" fill="#D0D5DD" fill-opacity="0.32" mask="url(#path-146-inside-71_2021_1626)"/>
<mask id="path-148-inside-72_2021_1626" fill="white">
<path d="M1059 953.005H1155V1049.01H1059V953.005Z"/>
</mask>
<path d="M1155 1049.01V1050.01H1156V1049.01H1155ZM1154 953.005V1049.01H1156V953.005H1154ZM1155 1048.01H1059V1050.01H1155V1048.01Z" fill="#D0D5DD" fill-opacity="0.32" mask="url(#path-148-inside-72_2021_1626)"/>
<mask id="path-150-inside-73_2021_1626" fill="white">
<path d="M1155 953.005H1251V1049.01H1155V953.005Z"/>
</mask>
<path d="M1251 1049.01V1050.01H1252V1049.01H1251ZM1250 953.005V1049.01H1252V953.005H1250ZM1251 1048.01H1155V1050.01H1251V1048.01Z" fill="#D0D5DD" fill-opacity="0.32" mask="url(#path-150-inside-73_2021_1626)"/>
<mask id="path-152-inside-74_2021_1626" fill="white">
<path d="M1251 953.005H1347V1049.01H1251V953.005Z"/>
</mask>
<path d="M1347 1049.01V1050.01H1348V1049.01H1347ZM1346 953.005V1049.01H1348V953.005H1346ZM1347 1048.01H1251V1050.01H1347V1048.01Z" fill="#D0D5DD" fill-opacity="0.32" mask="url(#path-152-inside-74_2021_1626)"/>
<mask id="path-154-inside-75_2021_1626" fill="white">
<path d="M1347 953.005H1443V1049.01H1347V953.005Z"/>
</mask>
<path d="M1443 1049.01V1050.01H1444V1049.01H1443ZM1442 953.005V1049.01H1444V953.005H1442ZM1443 1048.01H1347V1050.01H1443V1048.01Z" fill="#D0D5DD" fill-opacity="0.32" mask="url(#path-154-inside-75_2021_1626)"/>
<mask id="path-156-inside-76_2021_1626" fill="white">
<path d="M1443 953.005H1539V1049.01H1443V953.005Z"/>
</mask>
<path d="M1539 1049.01V1050.01H1540V1049.01H1539ZM1538 953.005V1049.01H1540V953.005H1538ZM1539 1048.01H1443V1050.01H1539V1048.01Z" fill="#D0D5DD" fill-opacity="0.32" mask="url(#path-156-inside-76_2021_1626)"/>
<mask id="path-158-inside-77_2021_1626" fill="white">
<path d="M1539 953.005H1635V1049.01H1539V953.005Z"/>
</mask>
<path d="M1635 1049.01V1050.01H1636V1049.01H1635ZM1634 953.005V1049.01H1636V953.005H1634ZM1635 1048.01H1539V1050.01H1635V1048.01Z" fill="#D0D5DD" fill-opacity="0.32" mask="url(#path-158-inside-77_2021_1626)"/>
<mask id="path-160-inside-78_2021_1626" fill="white">
<path d="M1635 953.005H1731V1049.01H1635V953.005Z"/>
</mask>
<path d="M1731 1049.01V1050.01H1732V1049.01H1731ZM1730 953.005V1049.01H1732V953.005H1730ZM1731 1048.01H1635V1050.01H1731V1048.01Z" fill="#D0D5DD" fill-opacity="0.32" mask="url(#path-160-inside-78_2021_1626)"/>
<mask id="path-162-inside-79_2021_1626" fill="white">
<path d="M1731 953.005H1827V1049.01H1731V953.005Z"/>
</mask>
<path d="M1827 1049.01V1050.01H1828V1049.01H1827ZM1826 953.005V1049.01H1828V953.005H1826ZM1827 1048.01H1731V1050.01H1827V1048.01Z" fill="#D0D5DD" fill-opacity="0.32" mask="url(#path-162-inside-79_2021_1626)"/>
<mask id="path-164-inside-80_2021_1626" fill="white">
<path d="M1827 953.005H1923V1049.01H1827V953.005Z"/>
</mask>
<path d="M1923 1049.01V1050.01H1924V1049.01H1923ZM1922 953.005V1049.01H1924V953.005H1922ZM1923 1048.01H1827V1050.01H1923V1048.01Z" fill="#D0D5DD" fill-opacity="0.32" mask="url(#path-164-inside-80_2021_1626)"/>
<mask id="path-166-inside-81_2021_1626" fill="white">
<path d="M387 1049.01H483V1145.01H387V1049.01Z"/>
</mask>
<path d="M483 1145.01V1146.01H484V1145.01H483ZM482 1049.01V1145.01H484V1049.01H482ZM483 1144.01H387V1146.01H483V1144.01Z" fill="#D0D5DD" fill-opacity="0.32" mask="url(#path-166-inside-81_2021_1626)"/>
<mask id="path-168-inside-82_2021_1626" fill="white">
<path d="M483 1049.01H579V1145.01H483V1049.01Z"/>
</mask>
<path d="M579 1145.01V1146.01H580V1145.01H579ZM578 1049.01V1145.01H580V1049.01H578ZM579 1144.01H483V1146.01H579V1144.01Z" fill="#D0D5DD" fill-opacity="0.32" mask="url(#path-168-inside-82_2021_1626)"/>
<mask id="path-170-inside-83_2021_1626" fill="white">
<path d="M579 1049.01H675V1145.01H579V1049.01Z"/>
</mask>
<path d="M675 1145.01V1146.01H676V1145.01H675ZM674 1049.01V1145.01H676V1049.01H674ZM675 1144.01H579V1146.01H675V1144.01Z" fill="#D0D5DD" fill-opacity="0.32" mask="url(#path-170-inside-83_2021_1626)"/>
<mask id="path-172-inside-84_2021_1626" fill="white">
<path d="M675 1049.01H771V1145.01H675V1049.01Z"/>
</mask>
<path d="M675 1049.01H771V1145.01H675V1049.01Z" fill="#F2F4F7" fill-opacity="0.1"/>
<path d="M771 1145.01V1146.01H772V1145.01H771ZM770 1049.01V1145.01H772V1049.01H770ZM771 1144.01H675V1146.01H771V1144.01Z" fill="#D0D5DD" fill-opacity="0.32" mask="url(#path-172-inside-84_2021_1626)"/>
<mask id="path-174-inside-85_2021_1626" fill="white">
<path d="M771 1049.01H867V1145.01H771V1049.01Z"/>
</mask>
<path d="M867 1145.01V1146.01H868V1145.01H867ZM866 1049.01V1145.01H868V1049.01H866ZM867 1144.01H771V1146.01H867V1144.01Z" fill="#D0D5DD" fill-opacity="0.32" mask="url(#path-174-inside-85_2021_1626)"/>
<mask id="path-176-inside-86_2021_1626" fill="white">
<path d="M867 1049.01H963V1145.01H867V1049.01Z"/>
</mask>
<path d="M963 1145.01V1146.01H964V1145.01H963ZM962 1049.01V1145.01H964V1049.01H962ZM963 1144.01H867V1146.01H963V1144.01Z" fill="#D0D5DD" fill-opacity="0.32" mask="url(#path-176-inside-86_2021_1626)"/>
<mask id="path-178-inside-87_2021_1626" fill="white">
<path d="M963 1049.01H1059V1145.01H963V1049.01Z"/>
</mask>
<path d="M1059 1145.01V1146.01H1060V1145.01H1059ZM1058 1049.01V1145.01H1060V1049.01H1058ZM1059 1144.01H963V1146.01H1059V1144.01Z" fill="#D0D5DD" fill-opacity="0.32" mask="url(#path-178-inside-87_2021_1626)"/>
<mask id="path-180-inside-88_2021_1626" fill="white">
<path d="M1059 1049.01H1155V1145.01H1059V1049.01Z"/>
</mask>
<path d="M1155 1145.01V1146.01H1156V1145.01H1155ZM1154 1049.01V1145.01H1156V1049.01H1154ZM1155 1144.01H1059V1146.01H1155V1144.01Z" fill="#D0D5DD" fill-opacity="0.32" mask="url(#path-180-inside-88_2021_1626)"/>
<mask id="path-182-inside-89_2021_1626" fill="white">
<path d="M1155 1049.01H1251V1145.01H1155V1049.01Z"/>
</mask>
<path d="M1251 1145.01V1146.01H1252V1145.01H1251ZM1250 1049.01V1145.01H1252V1049.01H1250ZM1251 1144.01H1155V1146.01H1251V1144.01Z" fill="#D0D5DD" fill-opacity="0.32" mask="url(#path-182-inside-89_2021_1626)"/>
<mask id="path-184-inside-90_2021_1626" fill="white">
<path d="M1251 1049.01H1347V1145.01H1251V1049.01Z"/>
</mask>
<path d="M1251 1049.01H1347V1145.01H1251V1049.01Z" fill="#F2F4F7" fill-opacity="0.1"/>
<path d="M1347 1145.01V1146.01H1348V1145.01H1347ZM1346 1049.01V1145.01H1348V1049.01H1346ZM1347 1144.01H1251V1146.01H1347V1144.01Z" fill="#D0D5DD" fill-opacity="0.32" mask="url(#path-184-inside-90_2021_1626)"/>
<mask id="path-186-inside-91_2021_1626" fill="white">
<path d="M1347 1049.01H1443V1145.01H1347V1049.01Z"/>
</mask>
<path d="M1443 1145.01V1146.01H1444V1145.01H1443ZM1442 1049.01V1145.01H1444V1049.01H1442ZM1443 1144.01H1347V1146.01H1443V1144.01Z" fill="#D0D5DD" fill-opacity="0.32" mask="url(#path-186-inside-91_2021_1626)"/>
<mask id="path-188-inside-92_2021_1626" fill="white">
<path d="M1443 1049.01H1539V1145.01H1443V1049.01Z"/>
</mask>
<path d="M1539 1145.01V1146.01H1540V1145.01H1539ZM1538 1049.01V1145.01H1540V1049.01H1538ZM1539 1144.01H1443V1146.01H1539V1144.01Z" fill="#D0D5DD" fill-opacity="0.32" mask="url(#path-188-inside-92_2021_1626)"/>
<mask id="path-190-inside-93_2021_1626" fill="white">
<path d="M1539 1049.01H1635V1145.01H1539V1049.01Z"/>
</mask>
<path d="M1635 1145.01V1146.01H1636V1145.01H1635ZM1634 1049.01V1145.01H1636V1049.01H1634ZM1635 1144.01H1539V1146.01H1635V1144.01Z" fill="#D0D5DD" fill-opacity="0.32" mask="url(#path-190-inside-93_2021_1626)"/>
<mask id="path-192-inside-94_2021_1626" fill="white">
<path d="M1635 1049.01H1731V1145.01H1635V1049.01Z"/>
</mask>
<path d="M1731 1145.01V1146.01H1732V1145.01H1731ZM1730 1049.01V1145.01H1732V1049.01H1730ZM1731 1144.01H1635V1146.01H1731V1144.01Z" fill="#D0D5DD" fill-opacity="0.32" mask="url(#path-192-inside-94_2021_1626)"/>
<mask id="path-194-inside-95_2021_1626" fill="white">
<path d="M1731 1049.01H1827V1145.01H1731V1049.01Z"/>
</mask>
<path d="M1827 1145.01V1146.01H1828V1145.01H1827ZM1826 1049.01V1145.01H1828V1049.01H1826ZM1827 1144.01H1731V1146.01H1827V1144.01Z" fill="#D0D5DD" fill-opacity="0.32" mask="url(#path-194-inside-95_2021_1626)"/>
<mask id="path-196-inside-96_2021_1626" fill="white">
<path d="M1827 1049.01H1923V1145.01H1827V1049.01Z"/>
</mask>
<path d="M1923 1145.01V1146.01H1924V1145.01H1923ZM1922 1049.01V1145.01H1924V1049.01H1922ZM1923 1144.01H1827V1146.01H1923V1144.01Z" fill="#D0D5DD" fill-opacity="0.32" mask="url(#path-196-inside-96_2021_1626)"/>
<mask id="path-198-inside-97_2021_1626" fill="white">
<path d="M387 1145.01H483V1241.01H387V1145.01Z"/>
</mask>
<path d="M483 1241.01V1242.01H484V1241.01H483ZM482 1145.01V1241.01H484V1145.01H482ZM483 1240.01H387V1242.01H483V1240.01Z" fill="#D0D5DD" fill-opacity="0.32" mask="url(#path-198-inside-97_2021_1626)"/>
<mask id="path-200-inside-98_2021_1626" fill="white">
<path d="M483 1145.01H579V1241.01H483V1145.01Z"/>
</mask>
<path d="M483 1145.01H579V1241.01H483V1145.01Z" fill="#F2F4F7" fill-opacity="0.1"/>
<path d="M579 1241.01V1242.01H580V1241.01H579ZM578 1145.01V1241.01H580V1145.01H578ZM579 1240.01H483V1242.01H579V1240.01Z" fill="#D0D5DD" fill-opacity="0.32" mask="url(#path-200-inside-98_2021_1626)"/>
<mask id="path-202-inside-99_2021_1626" fill="white">
<path d="M579 1145.01H675V1241.01H579V1145.01Z"/>
</mask>
<path d="M675 1241.01V1242.01H676V1241.01H675ZM674 1145.01V1241.01H676V1145.01H674ZM675 1240.01H579V1242.01H675V1240.01Z" fill="#D0D5DD" fill-opacity="0.32" mask="url(#path-202-inside-99_2021_1626)"/>
<mask id="path-204-inside-100_2021_1626" fill="white">
<path d="M675 1145.01H771V1241.01H675V1145.01Z"/>
</mask>
<path d="M771 1241.01V1242.01H772V1241.01H771ZM770 1145.01V1241.01H772V1145.01H770ZM771 1240.01H675V1242.01H771V1240.01Z" fill="#D0D5DD" fill-opacity="0.32" mask="url(#path-204-inside-100_2021_1626)"/>
<mask id="path-206-inside-101_2021_1626" fill="white">
<path d="M771 1145.01H867V1241.01H771V1145.01Z"/>
</mask>
<path d="M867 1241.01V1242.01H868V1241.01H867ZM866 1145.01V1241.01H868V1145.01H866ZM867 1240.01H771V1242.01H867V1240.01Z" fill="#D0D5DD" fill-opacity="0.32" mask="url(#path-206-inside-101_2021_1626)"/>
<mask id="path-208-inside-102_2021_1626" fill="white">
<path d="M867 1145.01H963V1241.01H867V1145.01Z"/>
</mask>
<path d="M963 1241.01V1242.01H964V1241.01H963ZM962 1145.01V1241.01H964V1145.01H962ZM963 1240.01H867V1242.01H963V1240.01Z" fill="#D0D5DD" fill-opacity="0.32" mask="url(#path-208-inside-102_2021_1626)"/>
<mask id="path-210-inside-103_2021_1626" fill="white">
<path d="M963 1145.01H1059V1241.01H963V1145.01Z"/>
</mask>
<path d="M1059 1241.01V1242.01H1060V1241.01H1059ZM1058 1145.01V1241.01H1060V1145.01H1058ZM1059 1240.01H963V1242.01H1059V1240.01Z" fill="#D0D5DD" fill-opacity="0.32" mask="url(#path-210-inside-103_2021_1626)"/>
<mask id="path-212-inside-104_2021_1626" fill="white">
<path d="M1059 1145.01H1155V1241.01H1059V1145.01Z"/>
</mask>
<path d="M1155 1241.01V1242.01H1156V1241.01H1155ZM1154 1145.01V1241.01H1156V1145.01H1154ZM1155 1240.01H1059V1242.01H1155V1240.01Z" fill="#D0D5DD" fill-opacity="0.32" mask="url(#path-212-inside-104_2021_1626)"/>
<mask id="path-214-inside-105_2021_1626" fill="white">
<path d="M1155 1145.01H1251V1241.01H1155V1145.01Z"/>
</mask>
<path d="M1251 1241.01V1242.01H1252V1241.01H1251ZM1250 1145.01V1241.01H1252V1145.01H1250ZM1251 1240.01H1155V1242.01H1251V1240.01Z" fill="#D0D5DD" fill-opacity="0.32" mask="url(#path-214-inside-105_2021_1626)"/>
<mask id="path-216-inside-106_2021_1626" fill="white">
<path d="M1251 1145.01H1347V1241.01H1251V1145.01Z"/>
</mask>
<path d="M1347 1241.01V1242.01H1348V1241.01H1347ZM1346 1145.01V1241.01H1348V1145.01H1346ZM1347 1240.01H1251V1242.01H1347V1240.01Z" fill="#D0D5DD" fill-opacity="0.32" mask="url(#path-216-inside-106_2021_1626)"/>
<mask id="path-218-inside-107_2021_1626" fill="white">
<path d="M1347 1145.01H1443V1241.01H1347V1145.01Z"/>
</mask>
<path d="M1443 1241.01V1242.01H1444V1241.01H1443ZM1442 1145.01V1241.01H1444V1145.01H1442ZM1443 1240.01H1347V1242.01H1443V1240.01Z" fill="#D0D5DD" fill-opacity="0.32" mask="url(#path-218-inside-107_2021_1626)"/>
<mask id="path-220-inside-108_2021_1626" fill="white">
<path d="M1443 1145.01H1539V1241.01H1443V1145.01Z"/>
</mask>
<path d="M1539 1241.01V1242.01H1540V1241.01H1539ZM1538 1145.01V1241.01H1540V1145.01H1538ZM1539 1240.01H1443V1242.01H1539V1240.01Z" fill="#D0D5DD" fill-opacity="0.32" mask="url(#path-220-inside-108_2021_1626)"/>
<mask id="path-222-inside-109_2021_1626" fill="white">
<path d="M1539 1145.01H1635V1241.01H1539V1145.01Z"/>
</mask>
<path d="M1635 1241.01V1242.01H1636V1241.01H1635ZM1634 1145.01V1241.01H1636V1145.01H1634ZM1635 1240.01H1539V1242.01H1635V1240.01Z" fill="#D0D5DD" fill-opacity="0.32" mask="url(#path-222-inside-109_2021_1626)"/>
<mask id="path-224-inside-110_2021_1626" fill="white">
<path d="M1635 1145.01H1731V1241.01H1635V1145.01Z"/>
</mask>
<path d="M1731 1241.01V1242.01H1732V1241.01H1731ZM1730 1145.01V1241.01H1732V1145.01H1730ZM1731 1240.01H1635V1242.01H1731V1240.01Z" fill="#D0D5DD" fill-opacity="0.32" mask="url(#path-224-inside-110_2021_1626)"/>
<mask id="path-226-inside-111_2021_1626" fill="white">
<path d="M1731 1145.01H1827V1241.01H1731V1145.01Z"/>
</mask>
<path d="M1731 1145.01H1827V1241.01H1731V1145.01Z" fill="#F2F4F7" fill-opacity="0.1"/>
<path d="M1827 1241.01V1242.01H1828V1241.01H1827ZM1826 1145.01V1241.01H1828V1145.01H1826ZM1827 1240.01H1731V1242.01H1827V1240.01Z" fill="#D0D5DD" fill-opacity="0.32" mask="url(#path-226-inside-111_2021_1626)"/>
<mask id="path-228-inside-112_2021_1626" fill="white">
<path d="M1827 1145.01H1923V1241.01H1827V1145.01Z"/>
</mask>
<path d="M1923 1241.01V1242.01H1924V1241.01H1923ZM1922 1145.01V1241.01H1924V1145.01H1922ZM1923 1240.01H1827V1242.01H1923V1240.01Z" fill="#D0D5DD" fill-opacity="0.32" mask="url(#path-228-inside-112_2021_1626)"/>
<mask id="path-230-inside-113_2021_1626" fill="white">
<path d="M387 1241.01H483V1337.01H387V1241.01Z"/>
</mask>
<path d="M483 1337.01V1338.01H484V1337.01H483ZM482 1241.01V1337.01H484V1241.01H482ZM483 1336.01H387V1338.01H483V1336.01Z" fill="#D0D5DD" fill-opacity="0.32" mask="url(#path-230-inside-113_2021_1626)"/>
<mask id="path-232-inside-114_2021_1626" fill="white">
<path d="M483 1241.01H579V1337.01H483V1241.01Z"/>
</mask>
<path d="M579 1337.01V1338.01H580V1337.01H579ZM578 1241.01V1337.01H580V1241.01H578ZM579 1336.01H483V1338.01H579V1336.01Z" fill="#D0D5DD" fill-opacity="0.32" mask="url(#path-232-inside-114_2021_1626)"/>
<mask id="path-234-inside-115_2021_1626" fill="white">
<path d="M579 1241.01H675V1337.01H579V1241.01Z"/>
</mask>
<path d="M675 1337.01V1338.01H676V1337.01H675ZM674 1241.01V1337.01H676V1241.01H674ZM675 1336.01H579V1338.01H675V1336.01Z" fill="#D0D5DD" fill-opacity="0.32" mask="url(#path-234-inside-115_2021_1626)"/>
<mask id="path-236-inside-116_2021_1626" fill="white">
<path d="M675 1241.01H771V1337.01H675V1241.01Z"/>
</mask>
<path d="M771 1337.01V1338.01H772V1337.01H771ZM770 1241.01V1337.01H772V1241.01H770ZM771 1336.01H675V1338.01H771V1336.01Z" fill="#D0D5DD" fill-opacity="0.32" mask="url(#path-236-inside-116_2021_1626)"/>
<mask id="path-238-inside-117_2021_1626" fill="white">
<path d="M771 1241.01H867V1337.01H771V1241.01Z"/>
</mask>
<path d="M867 1337.01V1338.01H868V1337.01H867ZM866 1241.01V1337.01H868V1241.01H866ZM867 1336.01H771V1338.01H867V1336.01Z" fill="#D0D5DD" fill-opacity="0.32" mask="url(#path-238-inside-117_2021_1626)"/>
<mask id="path-240-inside-118_2021_1626" fill="white">
<path d="M867 1241.01H963V1337.01H867V1241.01Z"/>
</mask>
<path d="M963 1337.01V1338.01H964V1337.01H963ZM962 1241.01V1337.01H964V1241.01H962ZM963 1336.01H867V1338.01H963V1336.01Z" fill="#D0D5DD" fill-opacity="0.32" mask="url(#path-240-inside-118_2021_1626)"/>
<mask id="path-242-inside-119_2021_1626" fill="white">
<path d="M963 1241.01H1059V1337.01H963V1241.01Z"/>
</mask>
<path d="M963 1241.01H1059V1337.01H963V1241.01Z" fill="#F2F4F7" fill-opacity="0.1"/>
<path d="M1059 1337.01V1338.01H1060V1337.01H1059ZM1058 1241.01V1337.01H1060V1241.01H1058ZM1059 1336.01H963V1338.01H1059V1336.01Z" fill="#D0D5DD" fill-opacity="0.32" mask="url(#path-242-inside-119_2021_1626)"/>
<mask id="path-244-inside-120_2021_1626" fill="white">
<path d="M1059 1241.01H1155V1337.01H1059V1241.01Z"/>
</mask>
<path d="M1155 1337.01V1338.01H1156V1337.01H1155ZM1154 1241.01V1337.01H1156V1241.01H1154ZM1155 1336.01H1059V1338.01H1155V1336.01Z" fill="#D0D5DD" fill-opacity="0.32" mask="url(#path-244-inside-120_2021_1626)"/>
<mask id="path-246-inside-121_2021_1626" fill="white">
<path d="M1155 1241.01H1251V1337.01H1155V1241.01Z"/>
</mask>
<path d="M1251 1337.01V1338.01H1252V1337.01H1251ZM1250 1241.01V1337.01H1252V1241.01H1250ZM1251 1336.01H1155V1338.01H1251V1336.01Z" fill="#D0D5DD" fill-opacity="0.32" mask="url(#path-246-inside-121_2021_1626)"/>
<mask id="path-248-inside-122_2021_1626" fill="white">
<path d="M1251 1241.01H1347V1337.01H1251V1241.01Z"/>
</mask>
<path d="M1347 1337.01V1338.01H1348V1337.01H1347ZM1346 1241.01V1337.01H1348V1241.01H1346ZM1347 1336.01H1251V1338.01H1347V1336.01Z" fill="#D0D5DD" fill-opacity="0.32" mask="url(#path-248-inside-122_2021_1626)"/>
<mask id="path-250-inside-123_2021_1626" fill="white">
<path d="M1347 1241.01H1443V1337.01H1347V1241.01Z"/>
</mask>
<path d="M1443 1337.01V1338.01H1444V1337.01H1443ZM1442 1241.01V1337.01H1444V1241.01H1442ZM1443 1336.01H1347V1338.01H1443V1336.01Z" fill="#D0D5DD" fill-opacity="0.32" mask="url(#path-250-inside-123_2021_1626)"/>
<mask id="path-252-inside-124_2021_1626" fill="white">
<path d="M1443 1241.01H1539V1337.01H1443V1241.01Z"/>
</mask>
<path d="M1539 1337.01V1338.01H1540V1337.01H1539ZM1538 1241.01V1337.01H1540V1241.01H1538ZM1539 1336.01H1443V1338.01H1539V1336.01Z" fill="#D0D5DD" fill-opacity="0.32" mask="url(#path-252-inside-124_2021_1626)"/>
<mask id="path-254-inside-125_2021_1626" fill="white">
<path d="M1539 1241.01H1635V1337.01H1539V1241.01Z"/>
</mask>
<path d="M1539 1241.01H1635V1337.01H1539V1241.01Z" fill="#F2F4F7" fill-opacity="0.1"/>
<path d="M1635 1337.01V1338.01H1636V1337.01H1635ZM1634 1241.01V1337.01H1636V1241.01H1634ZM1635 1336.01H1539V1338.01H1635V1336.01Z" fill="#D0D5DD" fill-opacity="0.32" mask="url(#path-254-inside-125_2021_1626)"/>
<mask id="path-256-inside-126_2021_1626" fill="white">
<path d="M1635 1241.01H1731V1337.01H1635V1241.01Z"/>
</mask>
<path d="M1731 1337.01V1338.01H1732V1337.01H1731ZM1730 1241.01V1337.01H1732V1241.01H1730ZM1731 1336.01H1635V1338.01H1731V1336.01Z" fill="#D0D5DD" fill-opacity="0.32" mask="url(#path-256-inside-126_2021_1626)"/>
<mask id="path-258-inside-127_2021_1626" fill="white">
<path d="M1731 1241.01H1827V1337.01H1731V1241.01Z"/>
</mask>
<path d="M1827 1337.01V1338.01H1828V1337.01H1827ZM1826 1241.01V1337.01H1828V1241.01H1826ZM1827 1336.01H1731V1338.01H1827V1336.01Z" fill="#D0D5DD" fill-opacity="0.32" mask="url(#path-258-inside-127_2021_1626)"/>
<mask id="path-260-inside-128_2021_1626" fill="white">
<path d="M1827 1241.01H1923V1337.01H1827V1241.01Z"/>
</mask>
<path d="M1923 1337.01V1338.01H1924V1337.01H1923ZM1922 1241.01V1337.01H1924V1241.01H1922ZM1923 1336.01H1827V1338.01H1923V1336.01Z" fill="#D0D5DD" fill-opacity="0.32" mask="url(#path-260-inside-128_2021_1626)"/>
<mask id="path-262-inside-129_2021_1626" fill="white">
<path d="M387 1337.01H483V1433.01H387V1337.01Z"/>
</mask>
<path d="M483 1433.01V1434.01H484V1433.01H483ZM482 1337.01V1433.01H484V1337.01H482ZM483 1432.01H387V1434.01H483V1432.01Z" fill="#D0D5DD" fill-opacity="0.32" mask="url(#path-262-inside-129_2021_1626)"/>
<mask id="path-264-inside-130_2021_1626" fill="white">
<path d="M483 1337.01H579V1433.01H483V1337.01Z"/>
</mask>
<path d="M579 1433.01V1434.01H580V1433.01H579ZM578 1337.01V1433.01H580V1337.01H578ZM579 1432.01H483V1434.01H579V1432.01Z" fill="#D0D5DD" fill-opacity="0.32" mask="url(#path-264-inside-130_2021_1626)"/>
<mask id="path-266-inside-131_2021_1626" fill="white">
<path d="M579 1337.01H675V1433.01H579V1337.01Z"/>
</mask>
<path d="M675 1433.01V1434.01H676V1433.01H675ZM674 1337.01V1433.01H676V1337.01H674ZM675 1432.01H579V1434.01H675V1432.01Z" fill="#D0D5DD" fill-opacity="0.32" mask="url(#path-266-inside-131_2021_1626)"/>
<mask id="path-268-inside-132_2021_1626" fill="white">
<path d="M675 1337.01H771V1433.01H675V1337.01Z"/>
</mask>
<path d="M675 1337.01H771V1433.01H675V1337.01Z" fill="#F2F4F7" fill-opacity="0.1"/>
<path d="M771 1433.01V1434.01H772V1433.01H771ZM770 1337.01V1433.01H772V1337.01H770ZM771 1432.01H675V1434.01H771V1432.01Z" fill="#D0D5DD" fill-opacity="0.32" mask="url(#path-268-inside-132_2021_1626)"/>
<mask id="path-270-inside-133_2021_1626" fill="white">
<path d="M771 1337.01H867V1433.01H771V1337.01Z"/>
</mask>
<path d="M867 1433.01V1434.01H868V1433.01H867ZM866 1337.01V1433.01H868V1337.01H866ZM867 1432.01H771V1434.01H867V1432.01Z" fill="#D0D5DD" fill-opacity="0.32" mask="url(#path-270-inside-133_2021_1626)"/>
<mask id="path-272-inside-134_2021_1626" fill="white">
<path d="M867 1337.01H963V1433.01H867V1337.01Z"/>
</mask>
<path d="M963 1433.01V1434.01H964V1433.01H963ZM962 1337.01V1433.01H964V1337.01H962ZM963 1432.01H867V1434.01H963V1432.01Z" fill="#D0D5DD" fill-opacity="0.32" mask="url(#path-272-inside-134_2021_1626)"/>
<mask id="path-274-inside-135_2021_1626" fill="white">
<path d="M963 1337.01H1059V1433.01H963V1337.01Z"/>
</mask>
<path d="M1059 1433.01V1434.01H1060V1433.01H1059ZM1058 1337.01V1433.01H1060V1337.01H1058ZM1059 1432.01H963V1434.01H1059V1432.01Z" fill="#D0D5DD" fill-opacity="0.32" mask="url(#path-274-inside-135_2021_1626)"/>
<mask id="path-276-inside-136_2021_1626" fill="white">
<path d="M1059 1337.01H1155V1433.01H1059V1337.01Z"/>
</mask>
<path d="M1155 1433.01V1434.01H1156V1433.01H1155ZM1154 1337.01V1433.01H1156V1337.01H1154ZM1155 1432.01H1059V1434.01H1155V1432.01Z" fill="#D0D5DD" fill-opacity="0.32" mask="url(#path-276-inside-136_2021_1626)"/>
<mask id="path-278-inside-137_2021_1626" fill="white">
<path d="M1155 1337.01H1251V1433.01H1155V1337.01Z"/>
</mask>
<path d="M1251 1433.01V1434.01H1252V1433.01H1251ZM1250 1337.01V1433.01H1252V1337.01H1250ZM1251 1432.01H1155V1434.01H1251V1432.01Z" fill="#D0D5DD" fill-opacity="0.32" mask="url(#path-278-inside-137_2021_1626)"/>
<mask id="path-280-inside-138_2021_1626" fill="white">
<path d="M1251 1337.01H1347V1433.01H1251V1337.01Z"/>
</mask>
<path d="M1251 1337.01H1347V1433.01H1251V1337.01Z" fill="#F2F4F7" fill-opacity="0.1"/>
<path d="M1347 1433.01V1434.01H1348V1433.01H1347ZM1346 1337.01V1433.01H1348V1337.01H1346ZM1347 1432.01H1251V1434.01H1347V1432.01Z" fill="#D0D5DD" fill-opacity="0.32" mask="url(#path-280-inside-138_2021_1626)"/>
<mask id="path-282-inside-139_2021_1626" fill="white">
<path d="M1347 1337.01H1443V1433.01H1347V1337.01Z"/>
</mask>
<path d="M1443 1433.01V1434.01H1444V1433.01H1443ZM1442 1337.01V1433.01H1444V1337.01H1442ZM1443 1432.01H1347V1434.01H1443V1432.01Z" fill="#D0D5DD" fill-opacity="0.32" mask="url(#path-282-inside-139_2021_1626)"/>
<mask id="path-284-inside-140_2021_1626" fill="white">
<path d="M1443 1337.01H1539V1433.01H1443V1337.01Z"/>
</mask>
<path d="M1539 1433.01V1434.01H1540V1433.01H1539ZM1538 1337.01V1433.01H1540V1337.01H1538ZM1539 1432.01H1443V1434.01H1539V1432.01Z" fill="#D0D5DD" fill-opacity="0.32" mask="url(#path-284-inside-140_2021_1626)"/>
<mask id="path-286-inside-141_2021_1626" fill="white">
<path d="M1539 1337.01H1635V1433.01H1539V1337.01Z"/>
</mask>
<path d="M1635 1433.01V1434.01H1636V1433.01H1635ZM1634 1337.01V1433.01H1636V1337.01H1634ZM1635 1432.01H1539V1434.01H1635V1432.01Z" fill="#D0D5DD" fill-opacity="0.32" mask="url(#path-286-inside-141_2021_1626)"/>
<mask id="path-288-inside-142_2021_1626" fill="white">
<path d="M1635 1337.01H1731V1433.01H1635V1337.01Z"/>
</mask>
<path d="M1731 1433.01V1434.01H1732V1433.01H1731ZM1730 1337.01V1433.01H1732V1337.01H1730ZM1731 1432.01H1635V1434.01H1731V1432.01Z" fill="#D0D5DD" fill-opacity="0.32" mask="url(#path-288-inside-142_2021_1626)"/>
<mask id="path-290-inside-143_2021_1626" fill="white">
<path d="M1731 1337.01H1827V1433.01H1731V1337.01Z"/>
</mask>
<path d="M1827 1433.01V1434.01H1828V1433.01H1827ZM1826 1337.01V1433.01H1828V1337.01H1826ZM1827 1432.01H1731V1434.01H1827V1432.01Z" fill="#D0D5DD" fill-opacity="0.32" mask="url(#path-290-inside-143_2021_1626)"/>
<mask id="path-292-inside-144_2021_1626" fill="white">
<path d="M1827 1337.01H1923V1433.01H1827V1337.01Z"/>
</mask>
<path d="M1923 1433.01V1434.01H1924V1433.01H1923ZM1922 1337.01V1433.01H1924V1337.01H1922ZM1923 1432.01H1827V1434.01H1923V1432.01Z" fill="#D0D5DD" fill-opacity="0.32" mask="url(#path-292-inside-144_2021_1626)"/>
<mask id="path-294-inside-145_2021_1626" fill="white">
<path d="M387 1433.01H483V1529.01H387V1433.01Z"/>
</mask>
<path d="M483 1529.01V1530.01H484V1529.01H483ZM482 1433.01V1529.01H484V1433.01H482ZM483 1528.01H387V1530.01H483V1528.01Z" fill="#D0D5DD" fill-opacity="0.32" mask="url(#path-294-inside-145_2021_1626)"/>
<mask id="path-296-inside-146_2021_1626" fill="white">
<path d="M483 1433.01H579V1529.01H483V1433.01Z"/>
</mask>
<path d="M579 1529.01V1530.01H580V1529.01H579ZM578 1433.01V1529.01H580V1433.01H578ZM579 1528.01H483V1530.01H579V1528.01Z" fill="#D0D5DD" fill-opacity="0.32" mask="url(#path-296-inside-146_2021_1626)"/>
<mask id="path-298-inside-147_2021_1626" fill="white">
<path d="M579 1433.01H675V1529.01H579V1433.01Z"/>
</mask>
<path d="M675 1529.01V1530.01H676V1529.01H675ZM674 1433.01V1529.01H676V1433.01H674ZM675 1528.01H579V1530.01H675V1528.01Z" fill="#D0D5DD" fill-opacity="0.32" mask="url(#path-298-inside-147_2021_1626)"/>
<mask id="path-300-inside-148_2021_1626" fill="white">
<path d="M675 1433.01H771V1529.01H675V1433.01Z"/>
</mask>
<path d="M771 1529.01V1530.01H772V1529.01H771ZM770 1433.01V1529.01H772V1433.01H770ZM771 1528.01H675V1530.01H771V1528.01Z" fill="#D0D5DD" fill-opacity="0.32" mask="url(#path-300-inside-148_2021_1626)"/>
<mask id="path-302-inside-149_2021_1626" fill="white">
<path d="M771 1433.01H867V1529.01H771V1433.01Z"/>
</mask>
<path d="M867 1529.01V1530.01H868V1529.01H867ZM866 1433.01V1529.01H868V1433.01H866ZM867 1528.01H771V1530.01H867V1528.01Z" fill="#D0D5DD" fill-opacity="0.32" mask="url(#path-302-inside-149_2021_1626)"/>
<mask id="path-304-inside-150_2021_1626" fill="white">
<path d="M867 1433.01H963V1529.01H867V1433.01Z"/>
</mask>
<path d="M963 1529.01V1530.01H964V1529.01H963ZM962 1433.01V1529.01H964V1433.01H962ZM963 1528.01H867V1530.01H963V1528.01Z" fill="#D0D5DD" fill-opacity="0.32" mask="url(#path-304-inside-150_2021_1626)"/>
<mask id="path-306-inside-151_2021_1626" fill="white">
<path d="M963 1433.01H1059V1529.01H963V1433.01Z"/>
</mask>
<path d="M1059 1529.01V1530.01H1060V1529.01H1059ZM1058 1433.01V1529.01H1060V1433.01H1058ZM1059 1528.01H963V1530.01H1059V1528.01Z" fill="#D0D5DD" fill-opacity="0.32" mask="url(#path-306-inside-151_2021_1626)"/>
<mask id="path-308-inside-152_2021_1626" fill="white">
<path d="M1059 1433.01H1155V1529.01H1059V1433.01Z"/>
</mask>
<path d="M1155 1529.01V1530.01H1156V1529.01H1155ZM1154 1433.01V1529.01H1156V1433.01H1154ZM1155 1528.01H1059V1530.01H1155V1528.01Z" fill="#D0D5DD" fill-opacity="0.32" mask="url(#path-308-inside-152_2021_1626)"/>
<mask id="path-310-inside-153_2021_1626" fill="white">
<path d="M1155 1433.01H1251V1529.01H1155V1433.01Z"/>
</mask>
<path d="M1251 1529.01V1530.01H1252V1529.01H1251ZM1250 1433.01V1529.01H1252V1433.01H1250ZM1251 1528.01H1155V1530.01H1251V1528.01Z" fill="#D0D5DD" fill-opacity="0.32" mask="url(#path-310-inside-153_2021_1626)"/>
<mask id="path-312-inside-154_2021_1626" fill="white">
<path d="M1251 1433.01H1347V1529.01H1251V1433.01Z"/>
</mask>
<path d="M1347 1529.01V1530.01H1348V1529.01H1347ZM1346 1433.01V1529.01H1348V1433.01H1346ZM1347 1528.01H1251V1530.01H1347V1528.01Z" fill="#D0D5DD" fill-opacity="0.32" mask="url(#path-312-inside-154_2021_1626)"/>
<mask id="path-314-inside-155_2021_1626" fill="white">
<path d="M1347 1433.01H1443V1529.01H1347V1433.01Z"/>
</mask>
<path d="M1443 1529.01V1530.01H1444V1529.01H1443ZM1442 1433.01V1529.01H1444V1433.01H1442ZM1443 1528.01H1347V1530.01H1443V1528.01Z" fill="#D0D5DD" fill-opacity="0.32" mask="url(#path-314-inside-155_2021_1626)"/>
<mask id="path-316-inside-156_2021_1626" fill="white">
<path d="M1443 1433.01H1539V1529.01H1443V1433.01Z"/>
</mask>
<path d="M1539 1529.01V1530.01H1540V1529.01H1539ZM1538 1433.01V1529.01H1540V1433.01H1538ZM1539 1528.01H1443V1530.01H1539V1528.01Z" fill="#D0D5DD" fill-opacity="0.32" mask="url(#path-316-inside-156_2021_1626)"/>
<mask id="path-318-inside-157_2021_1626" fill="white">
<path d="M1539 1433.01H1635V1529.01H1539V1433.01Z"/>
</mask>
<path d="M1635 1529.01V1530.01H1636V1529.01H1635ZM1634 1433.01V1529.01H1636V1433.01H1634ZM1635 1528.01H1539V1530.01H1635V1528.01Z" fill="#D0D5DD" fill-opacity="0.32" mask="url(#path-318-inside-157_2021_1626)"/>
<mask id="path-320-inside-158_2021_1626" fill="white">
<path d="M1635 1433.01H1731V1529.01H1635V1433.01Z"/>
</mask>
<path d="M1731 1529.01V1530.01H1732V1529.01H1731ZM1730 1433.01V1529.01H1732V1433.01H1730ZM1731 1528.01H1635V1530.01H1731V1528.01Z" fill="#D0D5DD" fill-opacity="0.32" mask="url(#path-320-inside-158_2021_1626)"/>
<mask id="path-322-inside-159_2021_1626" fill="white">
<path d="M1731 1433.01H1827V1529.01H1731V1433.01Z"/>
</mask>
<path d="M1827 1529.01V1530.01H1828V1529.01H1827ZM1826 1433.01V1529.01H1828V1433.01H1826ZM1827 1528.01H1731V1530.01H1827V1528.01Z" fill="#D0D5DD" fill-opacity="0.32" mask="url(#path-322-inside-159_2021_1626)"/>
<mask id="path-324-inside-160_2021_1626" fill="white">
<path d="M1827 1433.01H1923V1529.01H1827V1433.01Z"/>
</mask>
<path d="M1827 1433.01H1923V1529.01H1827V1433.01Z" fill="#F2F4F7" fill-opacity="0.1"/>
<path d="M1923 1529.01V1530.01H1924V1529.01H1923ZM1922 1433.01V1529.01H1924V1433.01H1922ZM1923 1528.01H1827V1530.01H1923V1528.01Z" fill="#D0D5DD" fill-opacity="0.32" mask="url(#path-324-inside-160_2021_1626)"/>
<mask id="path-326-inside-161_2021_1626" fill="white">
<path d="M387 1529.01H483V1625.01H387V1529.01Z"/>
</mask>
<path d="M483 1625.01V1626.01H484V1625.01H483ZM482 1529.01V1625.01H484V1529.01H482ZM483 1624.01H387V1626.01H483V1624.01Z" fill="#D0D5DD" fill-opacity="0.32" mask="url(#path-326-inside-161_2021_1626)"/>
<mask id="path-328-inside-162_2021_1626" fill="white">
<path d="M483 1529.01H579V1625.01H483V1529.01Z"/>
</mask>
<path d="M579 1625.01V1626.01H580V1625.01H579ZM578 1529.01V1625.01H580V1529.01H578ZM579 1624.01H483V1626.01H579V1624.01Z" fill="#D0D5DD" fill-opacity="0.32" mask="url(#path-328-inside-162_2021_1626)"/>
<mask id="path-330-inside-163_2021_1626" fill="white">
<path d="M579 1529.01H675V1625.01H579V1529.01Z"/>
</mask>
<path d="M675 1625.01V1626.01H676V1625.01H675ZM674 1529.01V1625.01H676V1529.01H674ZM675 1624.01H579V1626.01H675V1624.01Z" fill="#D0D5DD" fill-opacity="0.32" mask="url(#path-330-inside-163_2021_1626)"/>
<mask id="path-332-inside-164_2021_1626" fill="white">
<path d="M675 1529.01H771V1625.01H675V1529.01Z"/>
</mask>
<path d="M771 1625.01V1626.01H772V1625.01H771ZM770 1529.01V1625.01H772V1529.01H770ZM771 1624.01H675V1626.01H771V1624.01Z" fill="#D0D5DD" fill-opacity="0.32" mask="url(#path-332-inside-164_2021_1626)"/>
<mask id="path-334-inside-165_2021_1626" fill="white">
<path d="M771 1529.01H867V1625.01H771V1529.01Z"/>
</mask>
<path d="M771 1529.01H867V1625.01H771V1529.01Z" fill="#F2F4F7" fill-opacity="0.1"/>
<path d="M867 1625.01V1626.01H868V1625.01H867ZM866 1529.01V1625.01H868V1529.01H866ZM867 1624.01H771V1626.01H867V1624.01Z" fill="#D0D5DD" fill-opacity="0.32" mask="url(#path-334-inside-165_2021_1626)"/>
<mask id="path-336-inside-166_2021_1626" fill="white">
<path d="M867 1529.01H963V1625.01H867V1529.01Z"/>
</mask>
<path d="M963 1625.01V1626.01H964V1625.01H963ZM962 1529.01V1625.01H964V1529.01H962ZM963 1624.01H867V1626.01H963V1624.01Z" fill="#D0D5DD" fill-opacity="0.32" mask="url(#path-336-inside-166_2021_1626)"/>
<mask id="path-338-inside-167_2021_1626" fill="white">
<path d="M963 1529.01H1059V1625.01H963V1529.01Z"/>
</mask>
<path d="M1059 1625.01V1626.01H1060V1625.01H1059ZM1058 1529.01V1625.01H1060V1529.01H1058ZM1059 1624.01H963V1626.01H1059V1624.01Z" fill="#D0D5DD" fill-opacity="0.32" mask="url(#path-338-inside-167_2021_1626)"/>
<mask id="path-340-inside-168_2021_1626" fill="white">
<path d="M1059 1529.01H1155V1625.01H1059V1529.01Z"/>
</mask>
<path d="M1155 1625.01V1626.01H1156V1625.01H1155ZM1154 1529.01V1625.01H1156V1529.01H1154ZM1155 1624.01H1059V1626.01H1155V1624.01Z" fill="#D0D5DD" fill-opacity="0.32" mask="url(#path-340-inside-168_2021_1626)"/>
<mask id="path-342-inside-169_2021_1626" fill="white">
<path d="M1155 1529.01H1251V1625.01H1155V1529.01Z"/>
</mask>
<path d="M1155 1529.01H1251V1625.01H1155V1529.01Z" fill="#F2F4F7" fill-opacity="0.1"/>
<path d="M1251 1625.01V1626.01H1252V1625.01H1251ZM1250 1529.01V1625.01H1252V1529.01H1250ZM1251 1624.01H1155V1626.01H1251V1624.01Z" fill="#D0D5DD" fill-opacity="0.32" mask="url(#path-342-inside-169_2021_1626)"/>
<mask id="path-344-inside-170_2021_1626" fill="white">
<path d="M1251 1529.01H1347V1625.01H1251V1529.01Z"/>
</mask>
<path d="M1347 1625.01V1626.01H1348V1625.01H1347ZM1346 1529.01V1625.01H1348V1529.01H1346ZM1347 1624.01H1251V1626.01H1347V1624.01Z" fill="#D0D5DD" fill-opacity="0.32" mask="url(#path-344-inside-170_2021_1626)"/>
<mask id="path-346-inside-171_2021_1626" fill="white">
<path d="M1347 1529.01H1443V1625.01H1347V1529.01Z"/>
</mask>
<path d="M1443 1625.01V1626.01H1444V1625.01H1443ZM1442 1529.01V1625.01H1444V1529.01H1442ZM1443 1624.01H1347V1626.01H1443V1624.01Z" fill="#D0D5DD" fill-opacity="0.32" mask="url(#path-346-inside-171_2021_1626)"/>
<mask id="path-348-inside-172_2021_1626" fill="white">
<path d="M1443 1529.01H1539V1625.01H1443V1529.01Z"/>
</mask>
<path d="M1539 1625.01V1626.01H1540V1625.01H1539ZM1538 1529.01V1625.01H1540V1529.01H1538ZM1539 1624.01H1443V1626.01H1539V1624.01Z" fill="#D0D5DD" fill-opacity="0.32" mask="url(#path-348-inside-172_2021_1626)"/>
<mask id="path-350-inside-173_2021_1626" fill="white">
<path d="M1539 1529.01H1635V1625.01H1539V1529.01Z"/>
</mask>
<path d="M1635 1625.01V1626.01H1636V1625.01H1635ZM1634 1529.01V1625.01H1636V1529.01H1634ZM1635 1624.01H1539V1626.01H1635V1624.01Z" fill="#D0D5DD" fill-opacity="0.32" mask="url(#path-350-inside-173_2021_1626)"/>
<mask id="path-352-inside-174_2021_1626" fill="white">
<path d="M1635 1529.01H1731V1625.01H1635V1529.01Z"/>
</mask>
<path d="M1731 1625.01V1626.01H1732V1625.01H1731ZM1730 1529.01V1625.01H1732V1529.01H1730ZM1731 1624.01H1635V1626.01H1731V1624.01Z" fill="#D0D5DD" fill-opacity="0.32" mask="url(#path-352-inside-174_2021_1626)"/>
<mask id="path-354-inside-175_2021_1626" fill="white">
<path d="M1731 1529.01H1827V1625.01H1731V1529.01Z"/>
</mask>
<path d="M1827 1625.01V1626.01H1828V1625.01H1827ZM1826 1529.01V1625.01H1828V1529.01H1826ZM1827 1624.01H1731V1626.01H1827V1624.01Z" fill="#D0D5DD" fill-opacity="0.32" mask="url(#path-354-inside-175_2021_1626)"/>
<mask id="path-356-inside-176_2021_1626" fill="white">
<path d="M1827 1529.01H1923V1625.01H1827V1529.01Z"/>
</mask>
<path d="M1923 1625.01V1626.01H1924V1625.01H1923ZM1922 1529.01V1625.01H1924V1529.01H1922ZM1923 1624.01H1827V1626.01H1923V1624.01Z" fill="#D0D5DD" fill-opacity="0.32" mask="url(#path-356-inside-176_2021_1626)"/>
</g>
<rect x="195.5" y="569.505" width="1919" height="1439" stroke="#D0D5DD" stroke-opacity="0.32"/>
</g>
</g>
<defs>
<filter id="filter0_f_2021_1626" x="0" y="798" width="1153" height="1153" filterUnits="userSpaceOnUse" color-interpolation-filters="sRGB">
<feFlood flood-opacity="0" result="BackgroundImageFix"/>
<feBlend mode="normal" in="SourceGraphic" in2="BackgroundImageFix" result="shape"/>
<feGaussianBlur stdDeviation="200" result="effect1_foregroundBlur_2021_1626"/>
</filter>
<filter id="filter1_f_2021_1626" x="310" y="288" width="1153" height="1153" filterUnits="userSpaceOnUse" color-interpolation-filters="sRGB">
<feFlood flood-opacity="0" result="BackgroundImageFix"/>
<feBlend mode="normal" in="SourceGraphic" in2="BackgroundImageFix" result="shape"/>
<feGaussianBlur stdDeviation="200" result="effect1_foregroundBlur_2021_1626"/>
</filter>
<filter id="filter2_f_2021_1626" x="1199.51" y="0" width="1049.82" height="1049.82" filterUnits="userSpaceOnUse" color-interpolation-filters="sRGB">
<feFlood flood-opacity="0" result="BackgroundImageFix"/>
<feBlend mode="normal" in="SourceGraphic" in2="BackgroundImageFix" result="shape"/>
<feGaussianBlur stdDeviation="200" result="effect1_foregroundBlur_2021_1626"/>
</filter>
<radialGradient id="paint0_radial_2021_1626" cx="0" cy="0" r="1" gradientUnits="userSpaceOnUse" gradientTransform="translate(720 -0.000142694) rotate(90) scale(1197 751.588)">
<stop/>
<stop offset="0.953125" stop-opacity="0"/>
</radialGradient>
<clipPath id="clip0_2021_1626">
<rect width="1435.58" height="981.995" fill="white" transform="translate(437 569.005)"/>
</clipPath>
<clipPath id="clip1_2021_1626">
<rect x="195" y="569.005" width="1920" height="1440" fill="white"/>
</clipPath>
</defs>
</svg>
