<svg width="24" height="25" viewBox="0 0 24 25" fill="none" xmlns="http://www.w3.org/2000/svg">
<path d="M15 12.8936C15 13.4869 14.8241 14.0669 14.4944 14.5603C14.1648 15.0536 13.6962 15.4381 13.1481 15.6652C12.5999 15.8923 11.9967 15.9517 11.4147 15.8359C10.8328 15.7202 10.2982 15.4344 9.87868 15.0149C9.45912 14.5953 9.1734 14.0608 9.05764 13.4788C8.94189 12.8969 9.0013 12.2937 9.22836 11.7455C9.45542 11.1973 9.83994 10.7288 10.3333 10.3991C10.8266 10.0695 11.4067 9.89355 12 9.89355C12.7949 9.89603 13.5565 10.2129 14.1186 10.775C14.6807 11.337 14.9975 12.0987 15 12.8936ZM21.375 8.76855V17.0186C21.375 18.4109 20.8219 19.7463 19.8373 20.7309C18.8527 21.7154 17.5174 22.2686 16.125 22.2686H7.875C6.48261 22.2686 5.14726 21.7154 4.16269 20.7309C3.17812 19.7463 2.625 18.4109 2.625 17.0186V8.76855C2.625 7.37617 3.17812 6.04081 4.16269 5.05624C5.14726 4.07168 6.48261 3.51855 7.875 3.51855H16.125C17.5174 3.51855 18.8527 4.07168 19.8373 5.05624C20.8219 6.04081 21.375 7.37617 21.375 8.76855ZM16.5 12.8936C16.5 12.0035 16.2361 11.1335 15.7416 10.3935C15.2471 9.65347 14.5443 9.07669 13.7221 8.7361C12.8998 8.3955 11.995 8.30639 11.1221 8.48002C10.2492 8.65365 9.44736 9.08224 8.81802 9.71157C8.18868 10.3409 7.7601 11.1427 7.58647 12.0156C7.41283 12.8886 7.50195 13.7934 7.84254 14.6156C8.18314 15.4379 8.75991 16.1407 9.49993 16.6352C10.24 17.1296 11.11 17.3936 12 17.3936C13.1935 17.3936 14.3381 16.9194 15.182 16.0755C16.0259 15.2316 16.5 14.087 16.5 12.8936ZM18 8.01855C18 7.79605 17.934 7.57854 17.8104 7.39354C17.6868 7.20853 17.5111 7.06434 17.3055 6.97919C17.1 6.89404 16.8738 6.87176 16.6555 6.91517C16.4373 6.95858 16.2368 7.06573 16.0795 7.22306C15.9222 7.38039 15.815 7.58085 15.7716 7.79908C15.7282 8.01731 15.7505 8.24351 15.8356 8.44907C15.9208 8.65464 16.065 8.83034 16.25 8.95396C16.435 9.07757 16.6525 9.14355 16.875 9.14355C17.1734 9.14355 17.4595 9.02503 17.6705 8.81405C17.8815 8.60307 18 8.31692 18 8.01855Z" fill="white"/>
</svg>
