<svg width="45" height="44" viewBox="0 0 45 44" fill="none" xmlns="http://www.w3.org/2000/svg">
<path fill-rule="evenodd" clip-rule="evenodd" d="M20.3748 5.49984C20.3748 5.24723 20.5805 5.0415 20.8331 5.0415H24.4998C24.7524 5.0415 24.9581 5.24723 24.9581 5.49984V9.1665C24.9581 9.41911 24.7524 9.62484 24.4998 9.62484H20.8331C20.5805 9.62484 20.3748 9.41911 20.3748 9.1665V7.33362V5.49984ZM17.6248 8.70862V9.1665C17.6248 10.9379 19.0617 12.3748 20.8331 12.3748H24.4998C26.2711 12.3748 27.7081 10.9379 27.7081 9.1665V8.70862H33.6673C34.9338 8.70862 35.959 9.73384 35.959 11.0003V16.9586H35.5002C33.7288 16.9586 32.2919 18.3956 32.2919 20.167V23.8336C32.2919 25.605 33.7288 27.042 35.5002 27.042H35.959V32.9998C35.959 34.2663 34.9338 35.2915 33.6673 35.2915H27.7081V34.8334C27.7081 33.062 26.2711 31.6251 24.4998 31.6251H20.8331C19.0617 31.6251 17.6248 33.062 17.6248 34.8334V35.2917H11.6664C10.4 35.2917 9.37476 34.2665 9.37476 33.0001C9.37476 33 9.37476 32.9999 9.37476 32.9998V27.042H9.83398C11.6054 27.042 13.0423 25.605 13.0423 23.8336V20.167C13.0423 18.3956 11.6054 16.9586 9.83398 16.9586H9.37476V11.0003C9.37476 9.73384 10.4 8.70862 11.6664 8.70862H17.6248ZM6.62476 27.042H6.16732C4.39593 27.042 2.95898 25.605 2.95898 23.8336V20.167C2.95898 18.3956 4.39593 16.9586 6.16732 16.9586H6.62476V11.0003C6.62476 8.21506 8.8812 5.95862 11.6664 5.95862H17.6248V5.49984C17.6248 3.72845 19.0617 2.2915 20.8331 2.2915H24.4998C26.2711 2.2915 27.7081 3.72845 27.7081 5.49984V5.95862H33.6673C36.4525 5.95862 38.709 8.21506 38.709 11.0003V16.9586H39.1669C40.9383 16.9586 42.3752 18.3956 42.3752 20.167V23.8336C42.3752 25.605 40.9383 27.042 39.1669 27.042H38.709V32.9998C38.709 35.7851 36.4525 38.0415 33.6673 38.0415H27.7081V38.5001C27.7081 40.2715 26.2711 41.7084 24.4998 41.7084H20.8331C19.0617 41.7084 17.6248 40.2715 17.6248 38.5001V38.0417H11.6664C8.8812 38.0417 6.62476 35.7853 6.62476 33.0001C6.62476 33 6.62476 32.9999 6.62476 32.9998V27.042ZM8.03514 24.292C8.02338 24.2917 8.01158 24.2915 7.99976 24.2915C7.98793 24.2915 7.97613 24.2917 7.96438 24.292H6.16732C5.91471 24.292 5.70898 24.0862 5.70898 23.8336V20.167C5.70898 19.9143 5.91471 19.7086 6.16732 19.7086H7.99976H9.83398C10.0866 19.7086 10.2923 19.9143 10.2923 20.167V23.8336C10.2923 24.0862 10.0866 24.292 9.83398 24.292H8.03514ZM20.3748 38.5001V36.6667V34.8334C20.3748 34.5808 20.5805 34.3751 20.8331 34.3751H24.4998C24.7524 34.3751 24.9581 34.5808 24.9581 34.8334V38.5001C24.9581 38.7527 24.7524 38.9584 24.4998 38.9584H20.8331C20.5805 38.9584 20.3748 38.7527 20.3748 38.5001ZM37.3694 24.292H39.1669C39.4195 24.292 39.6252 24.0862 39.6252 23.8336V20.167C39.6252 19.9143 39.4195 19.7086 39.1669 19.7086H37.334H35.5002C35.2476 19.7086 35.0419 19.9143 35.0419 20.167V23.8336C35.0419 24.0862 35.2476 24.292 35.5002 24.292H37.2986L37.3133 24.2917L37.334 24.2915C37.3437 24.2915 37.3534 24.2916 37.3631 24.2918L37.3694 24.292ZM24.4089 16.4998C24.4089 17.3714 23.7048 18.1058 22.8047 18.1058C21.9188 18.1058 21.2006 17.3875 21.2006 16.5017C21.2006 15.1976 22.2711 14.9051 22.7848 14.8976C23.6901 14.8845 24.4089 15.6179 24.4089 16.4998ZM22.8047 23.6058C23.7048 23.6058 24.4089 22.8714 24.4089 21.9998C24.4089 21.1179 23.6901 20.3845 22.7848 20.3976C22.2711 20.4051 21.2006 20.6976 21.2006 22.0017C21.2006 22.8875 21.9188 23.6058 22.8047 23.6058ZM24.4089 27.4998C24.4089 28.3714 23.7048 29.1058 22.8047 29.1058C21.9188 29.1058 21.2006 28.3875 21.2006 27.5017C21.2006 26.1976 22.2711 25.9051 22.7848 25.8976C23.6901 25.8845 24.4089 26.6179 24.4089 27.4998ZM27.8549 23.6058C28.755 23.6058 29.4591 22.8714 29.4591 21.9998C29.4591 21.1179 28.7402 20.3845 27.835 20.3976C27.3213 20.4051 26.2507 20.6976 26.2507 22.0017C26.2507 22.8875 26.969 23.6058 27.8549 23.6058ZM18.7249 21.9998C18.7249 22.8714 18.0209 23.6058 17.1208 23.6058C16.2349 23.6058 15.5166 22.8875 15.5166 22.0017C15.5166 20.6976 16.5872 20.4051 17.1008 20.3976C18.0061 20.3845 18.7249 21.1179 18.7249 21.9998Z" fill="url(#paint0_linear_256_1501)"/>
<defs>
<linearGradient id="paint0_linear_256_1501" x1="22.6671" y1="2.2915" x2="22.6671" y2="41.7084" gradientUnits="userSpaceOnUse">
<stop stop-color="#6C63FF"/>
<stop offset="1" stop-color="#2564EA"/>
</linearGradient>
</defs>
</svg>
