<svg width="45" height="44" viewBox="0 0 45 44" fill="none" xmlns="http://www.w3.org/2000/svg">
<path fill-rule="evenodd" clip-rule="evenodd" d="M7.20801 11C7.20801 8.72183 9.05483 6.875 11.333 6.875H33.333C35.6112 6.875 37.458 8.72183 37.458 11V15.125H7.20801V11ZM4.45801 16.5V11C4.45801 7.20304 7.53605 4.125 11.333 4.125H33.333C37.13 4.125 40.208 7.20304 40.208 11V16.5V22C40.208 22.7594 39.5924 23.375 38.833 23.375C38.0736 23.375 37.458 22.7594 37.458 22V17.875H7.20801V33C7.20801 35.2782 9.05483 37.125 11.333 37.125H16.833C17.5924 37.125 18.208 37.7406 18.208 38.5C18.208 39.2594 17.5924 39.875 16.833 39.875H11.333C7.53605 39.875 4.45801 36.797 4.45801 33V16.5ZM21.4722 10.0188C20.9352 9.48181 20.0646 9.48181 19.5276 10.0188L19.5185 10.0279C18.9815 10.5649 18.9815 11.4355 19.5185 11.9725L19.5276 11.9817C20.0646 12.5186 20.9352 12.5186 21.4722 11.9817L21.4813 11.9725C22.0183 11.4355 22.0183 10.5649 21.4813 10.0279L21.4722 10.0188ZM14.9443 10.0188C15.4813 9.48181 16.3519 9.48181 16.8888 10.0188L16.898 10.0279C17.435 10.5649 17.435 11.4355 16.898 11.9725L16.8888 11.9817C16.3519 12.5186 15.4813 12.5186 14.9443 11.9817L14.9351 11.9725C14.3981 11.4355 14.3981 10.5649 14.9351 10.0279L14.9443 10.0188ZM12.3055 10.0188C11.7685 9.48181 10.8979 9.48181 10.361 10.0188L10.3518 10.0279C9.81481 10.5649 9.81481 11.4355 10.3518 11.9725L10.361 11.9817C10.8979 12.5186 11.7685 12.5186 12.3055 11.9817L12.3147 11.9725C12.8516 11.4355 12.8516 10.5649 12.3147 10.0279L12.3055 10.0188ZM24.6085 28.7073C24.6084 28.7073 24.6085 28.7069 24.6088 28.7061C24.6093 28.7048 24.6104 28.7025 24.6123 28.6991C24.6103 28.7046 24.6087 28.7073 24.6085 28.7073ZM24.6247 28.6799C24.646 28.6498 24.6922 28.5951 24.7851 28.5166C25.0308 28.3091 25.468 28.0603 26.1285 27.8244C27.4375 27.357 29.3364 27.0417 31.4997 27.0417C33.663 27.0417 35.5618 27.357 36.8709 27.8244C37.5314 28.0603 37.9685 28.3091 38.2142 28.5166C38.3071 28.5951 38.3534 28.6498 38.3747 28.6799V30.9038C38.3534 30.9339 38.3071 30.9887 38.2142 31.0671C37.9685 31.2746 37.5314 31.5234 36.8709 31.7593C35.5618 32.2268 33.663 32.542 31.4997 32.542C29.3364 32.542 27.4375 32.2268 26.1285 31.7593C25.468 31.5234 25.0308 31.2746 24.7851 31.0671C24.6922 30.9887 24.646 30.9339 24.6247 30.9038V28.6799ZM21.8747 30.9706V28.6131C21.8747 27.6446 22.428 26.9077 23.0109 26.4155C23.6001 25.918 24.3712 25.5319 25.2036 25.2346C26.8805 24.6358 29.1066 24.2917 31.4997 24.2917C33.8928 24.2917 36.1189 24.6358 37.7957 25.2346C38.6282 25.5319 39.3993 25.918 39.9885 26.4155C40.5713 26.9077 41.1247 27.6446 41.1247 28.6131V30.9706V37.3869C41.1247 38.3554 40.5713 39.0923 39.9885 39.5845C39.3993 40.082 38.6282 40.4681 37.7957 40.7654C36.1189 41.3642 33.8928 41.7083 31.4997 41.7083C29.1066 41.7083 26.8805 41.3642 25.2036 40.7654C24.3712 40.4681 23.6001 40.082 23.0109 39.5845C22.428 39.0923 21.8747 38.3554 21.8747 37.3869V30.9706ZM38.3747 34.1229V37.3201C38.3534 37.3502 38.3071 37.4049 38.2142 37.4834C37.9685 37.6909 37.5314 37.9397 36.8709 38.1756C35.5618 38.643 33.663 38.9583 31.4997 38.9583C29.3364 38.9583 27.4375 38.643 26.1285 38.1756C25.468 37.9397 25.0308 37.6909 24.7851 37.4834C24.6922 37.4049 24.646 37.3502 24.6247 37.3201V34.1229C24.8132 34.2035 25.0067 34.2788 25.2036 34.3491C26.8805 34.9479 29.1066 35.292 31.4997 35.292C33.8928 35.292 36.1189 34.9479 37.7957 34.3491C37.9927 34.2788 38.1862 34.2035 38.3747 34.1229ZM24.6085 37.2927C24.6087 37.2927 24.6103 37.2954 24.6123 37.3009C24.6092 37.2954 24.6082 37.2927 24.6085 37.2927ZM38.3909 37.2927C38.391 37.2927 38.3908 37.2936 38.3899 37.2953L38.3871 37.3009C38.3891 37.2954 38.3906 37.2927 38.3909 37.2927ZM38.3909 28.7073C38.3906 28.7073 38.3891 28.7046 38.3871 28.6991C38.3901 28.7046 38.3911 28.7073 38.3909 28.7073Z" fill="url(#paint0_linear_256_1493)"/>
<defs>
<linearGradient id="paint0_linear_256_1493" x1="22.7913" y1="4.125" x2="22.7913" y2="41.7083" gradientUnits="userSpaceOnUse">
<stop stop-color="#6C63FF"/>
<stop offset="1" stop-color="#2564EA"/>
</linearGradient>
</defs>
</svg>
