<svg width="44" height="44" viewBox="0 0 44 44" fill="none" xmlns="http://www.w3.org/2000/svg">
<path fill-rule="evenodd" clip-rule="evenodd" d="M12.8332 6.875C11.5675 6.875 10.5415 7.90101 10.5415 9.16667V16.5C10.5415 17.2594 9.9259 17.875 9.1665 17.875C8.40711 17.875 7.7915 17.2594 7.7915 16.5V9.16667C7.7915 6.38223 10.0487 4.125 12.8332 4.125H34.8332C37.6176 4.125 39.8748 6.38223 39.8748 9.16667V33C39.8748 35.7844 37.6176 38.0417 34.8332 38.0417H27.4998C26.7404 38.0417 26.1248 37.4261 26.1248 36.6667C26.1248 35.9073 26.7404 35.2917 27.4998 35.2917H34.8332C36.0988 35.2917 37.1248 34.2657 37.1248 33V9.16667C37.1248 7.90101 36.0988 6.875 34.8332 6.875H12.8332ZM26.1248 12.8333C26.1248 12.0739 26.7404 11.4583 27.4998 11.4583H31.1665C31.9259 11.4583 32.5415 12.0739 32.5415 12.8333V16.5C32.5415 17.2594 31.9259 17.875 31.1665 17.875C30.4071 17.875 29.7915 17.2594 29.7915 16.5V16.1539L26.6417 19.3053C26.3829 19.5644 26.0464 19.6985 25.7071 19.7078C25.3923 19.7172 25.0727 19.6192 24.8076 19.4071L21.1852 16.5092L19.3054 18.3889C18.7685 18.9259 17.8979 18.9259 17.3609 18.3889C16.8239 17.852 16.8239 16.9814 17.3609 16.4444L20.1038 13.7015C20.3695 13.4312 20.7261 13.2913 21.0855 13.2917C21.2502 13.2918 21.4155 13.3215 21.5729 13.3815C21.7089 13.4332 21.8384 13.5073 21.9556 13.6037L25.5657 16.4918L27.848 14.2083H27.4998C26.7404 14.2083 26.1248 13.5927 26.1248 12.8333ZM26.1248 23.8333C26.1248 23.0739 26.7404 22.4583 27.4998 22.4583H31.1665C31.9259 22.4583 32.5415 23.0739 32.5415 23.8333C32.5415 24.5927 31.9259 25.2083 31.1665 25.2083H27.4998C26.7404 25.2083 26.1248 24.5927 26.1248 23.8333ZM27.4998 27.9583C26.7404 27.9583 26.1248 28.5739 26.1248 29.3333C26.1248 30.0927 26.7404 30.7083 27.4998 30.7083H31.1665C31.9259 30.7083 32.5415 30.0927 32.5415 29.3333C32.5415 28.5739 31.9259 27.9583 31.1665 27.9583H27.4998ZM16.6792 28.7583C17.2164 29.2951 17.2166 30.1657 16.6798 30.7028L13.0151 34.3695C12.4783 34.9065 11.6078 34.9068 11.0707 34.3702L8.86873 32.1702C8.33153 31.6334 8.33114 30.7628 8.86788 30.2256C9.40461 29.6884 10.2752 29.688 10.8124 30.2248L12.0418 31.4531L14.7347 28.7588C15.2715 28.2217 16.1421 28.2214 16.6792 28.7583ZM9.1665 20.625C5.36955 20.625 2.2915 23.703 2.2915 27.5V34.8333C2.2915 38.6303 5.36955 41.7083 9.1665 41.7083H16.4998C20.2968 41.7083 23.3748 38.6303 23.3748 34.8333V27.5C23.3748 23.703 20.2968 20.625 16.4998 20.625H9.1665ZM5.0415 27.5C5.0415 25.2218 6.88833 23.375 9.1665 23.375H16.4998C18.778 23.375 20.6248 25.2218 20.6248 27.5V34.8333C20.6248 37.1115 18.778 38.9583 16.4998 38.9583H9.1665C6.88833 38.9583 5.0415 37.1115 5.0415 34.8333V27.5Z" fill="url(#paint0_linear_256_1485)"/>
<defs>
<linearGradient id="paint0_linear_256_1485" x1="21.0832" y1="4.125" x2="21.0832" y2="41.7083" gradientUnits="userSpaceOnUse">
<stop stop-color="#6C63FF"/>
<stop offset="1" stop-color="#2564EA"/>
</linearGradient>
</defs>
</svg>
