<svg width="45" height="44" viewBox="0 0 45 44" fill="none" xmlns="http://www.w3.org/2000/svg">
<path fill-rule="evenodd" clip-rule="evenodd" d="M38.1083 21.9903C38.6453 22.5273 38.6453 23.3979 38.1083 23.9349L36.9438 25.0994C36.4068 25.6364 35.5362 25.6364 34.9993 25.0994C34.4623 24.5624 34.4623 23.6918 34.9993 23.1548L36.1638 21.9903C36.7007 21.4534 37.5713 21.4534 38.1083 21.9903Z" fill="url(#paint0_linear_256_1475)"/>
<path fill-rule="evenodd" clip-rule="evenodd" d="M25.7669 34.3318C26.3038 34.8687 26.3038 35.7393 25.7669 36.2763L24.6024 37.4408C24.0654 37.9778 23.1948 37.9778 22.6578 37.4408C22.1209 36.9038 22.1209 36.0332 22.6578 35.4963L23.8223 34.3318C24.3593 33.7948 25.2299 33.7948 25.7669 34.3318Z" fill="url(#paint1_linear_256_1475)"/>
<path fill-rule="evenodd" clip-rule="evenodd" d="M30.3831 18.7905C31.1425 18.7905 31.7581 19.4061 31.7581 20.1655V21.8123C31.7581 22.5717 31.1425 23.1873 30.3831 23.1873C29.6237 23.1873 29.0081 22.5717 29.0081 21.8123V20.1655C29.0081 19.4061 29.6237 18.7905 30.3831 18.7905Z" fill="url(#paint2_linear_256_1475)"/>
<path fill-rule="evenodd" clip-rule="evenodd" d="M22.6578 21.9903C23.1948 21.4534 24.0654 21.4534 24.6024 21.9903L25.7669 23.1548C26.3038 23.6918 26.3038 24.5624 25.7669 25.0994C25.2299 25.6364 24.3593 25.6364 23.8223 25.0994L22.6578 23.9349C22.1209 23.3979 22.1209 22.5273 22.6578 21.9903Z" fill="url(#paint3_linear_256_1475)"/>
<path fill-rule="evenodd" clip-rule="evenodd" d="M19.4579 29.7156C19.4579 28.9562 20.0735 28.3406 20.8329 28.3406H22.4798C23.2392 28.3406 23.8548 28.9562 23.8548 29.7156C23.8548 30.475 23.2392 31.0906 22.4798 31.0906H20.8329C20.0735 31.0906 19.4579 30.475 19.4579 29.7156Z" fill="url(#paint4_linear_256_1475)"/>
<path fill-rule="evenodd" clip-rule="evenodd" d="M28.3112 27.6437C28.9512 27.0036 29.898 26.7801 30.7567 27.0664L38.9147 29.7858C39.8 30.0809 40.4326 30.8643 40.5344 31.792C40.6363 32.7196 40.1888 33.6217 39.3886 34.1019L36.6419 35.7499C36.5498 35.8052 36.4727 35.8822 36.4175 35.9743L34.7695 38.721C34.2893 39.5212 33.3872 39.9688 32.4596 39.8669C31.5319 39.7651 30.7484 39.1326 30.4533 38.2472L27.7339 30.0891C27.4477 29.2304 27.6712 28.2837 28.3112 27.6437ZM30.5707 29.9031L37.3019 32.1469L35.2271 33.3918C34.7479 33.6793 34.3469 34.0803 34.0594 34.5595L32.8144 36.6344L30.5707 29.9031Z" fill="url(#paint5_linear_256_1475)"/>
<path fill-rule="evenodd" clip-rule="evenodd" d="M34.5713 33.9038C35.1083 33.3668 35.9789 33.3668 36.5158 33.9038L39.6253 37.0133C40.1623 37.5503 40.1623 38.4209 39.6253 38.9579C39.0884 39.4948 38.2178 39.4948 37.6808 38.9579L34.5713 35.8484C34.0343 35.3114 34.0343 34.4408 34.5713 33.9038Z" fill="url(#paint6_linear_256_1475)"/>
<path fill-rule="evenodd" clip-rule="evenodd" d="M4.78516 12.8291C4.78516 12.0697 5.40076 11.4541 6.16016 11.4541H39.1739C39.9333 11.4541 40.5489 12.0697 40.5489 12.8291C40.5489 13.5885 39.9333 14.2041 39.1739 14.2041H6.16016C5.40076 14.2041 4.78516 13.5885 4.78516 12.8291Z" fill="url(#paint7_linear_256_1475)"/>
<path fill-rule="evenodd" clip-rule="evenodd" d="M11.6624 6.86768C9.38301 6.86768 7.53516 8.71553 7.53516 10.995V25.6677C7.53516 27.9472 9.38301 29.795 11.6624 29.795H13.4965C14.2559 29.795 14.8715 30.4106 14.8715 31.17C14.8715 31.9294 14.2559 32.545 13.4965 32.545H11.6624C7.86422 32.545 4.78516 29.466 4.78516 25.6677V10.995C4.78516 7.19674 7.86422 4.11768 11.6624 4.11768H33.6716C37.4698 4.11768 40.5489 7.19674 40.5489 10.995V16.4973C40.5489 17.2567 39.9333 17.8723 39.1739 17.8723C38.4145 17.8723 37.7989 17.2567 37.7989 16.4973V10.995C37.7989 8.71553 35.9511 6.86768 33.6716 6.86768H11.6624Z" fill="url(#paint8_linear_256_1475)"/>
<defs>
<linearGradient id="paint0_linear_256_1475" x1="22.667" y1="4.11768" x2="22.667" y2="39.8813" gradientUnits="userSpaceOnUse">
<stop stop-color="#6C63FF"/>
<stop offset="1" stop-color="#2564EA"/>
</linearGradient>
<linearGradient id="paint1_linear_256_1475" x1="22.667" y1="4.11768" x2="22.667" y2="39.8813" gradientUnits="userSpaceOnUse">
<stop stop-color="#6C63FF"/>
<stop offset="1" stop-color="#2564EA"/>
</linearGradient>
<linearGradient id="paint2_linear_256_1475" x1="22.667" y1="4.11768" x2="22.667" y2="39.8813" gradientUnits="userSpaceOnUse">
<stop stop-color="#6C63FF"/>
<stop offset="1" stop-color="#2564EA"/>
</linearGradient>
<linearGradient id="paint3_linear_256_1475" x1="22.667" y1="4.11768" x2="22.667" y2="39.8813" gradientUnits="userSpaceOnUse">
<stop stop-color="#6C63FF"/>
<stop offset="1" stop-color="#2564EA"/>
</linearGradient>
<linearGradient id="paint4_linear_256_1475" x1="22.667" y1="4.11768" x2="22.667" y2="39.8813" gradientUnits="userSpaceOnUse">
<stop stop-color="#6C63FF"/>
<stop offset="1" stop-color="#2564EA"/>
</linearGradient>
<linearGradient id="paint5_linear_256_1475" x1="22.667" y1="4.11768" x2="22.667" y2="39.8813" gradientUnits="userSpaceOnUse">
<stop stop-color="#6C63FF"/>
<stop offset="1" stop-color="#2564EA"/>
</linearGradient>
<linearGradient id="paint6_linear_256_1475" x1="22.667" y1="4.11768" x2="22.667" y2="39.8813" gradientUnits="userSpaceOnUse">
<stop stop-color="#6C63FF"/>
<stop offset="1" stop-color="#2564EA"/>
</linearGradient>
<linearGradient id="paint7_linear_256_1475" x1="22.667" y1="4.11768" x2="22.667" y2="39.8813" gradientUnits="userSpaceOnUse">
<stop stop-color="#6C63FF"/>
<stop offset="1" stop-color="#2564EA"/>
</linearGradient>
<linearGradient id="paint8_linear_256_1475" x1="22.667" y1="4.11768" x2="22.667" y2="39.8813" gradientUnits="userSpaceOnUse">
<stop stop-color="#6C63FF"/>
<stop offset="1" stop-color="#2564EA"/>
</linearGradient>
</defs>
</svg>
