<svg width="44" height="44" viewBox="0 0 44 44" fill="none" xmlns="http://www.w3.org/2000/svg">
<path fill-rule="evenodd" clip-rule="evenodd" d="M4.52773 16.9027C5.0647 16.3658 5.9353 16.3658 6.47227 16.9027L9.22227 19.6527C9.75924 20.1897 9.75924 21.0603 9.22227 21.5973C8.6853 22.1342 7.8147 22.1342 7.27773 21.5973L5.5 19.8195L3.72227 21.5973C3.1853 22.1342 2.3147 22.1342 1.77773 21.5973C1.24076 21.0603 1.24076 20.1897 1.77773 19.6527L4.52773 16.9027Z" fill="url(#paint0_linear_256_1459)"/>
<path fill-rule="evenodd" clip-rule="evenodd" d="M34.7777 22.4027C35.3147 21.8658 36.1853 21.8658 36.7223 22.4027L38.5 24.1805L40.2777 22.4027C40.8147 21.8658 41.6853 21.8658 42.2223 22.4027C42.7592 22.9397 42.7592 23.8103 42.2223 24.3473L39.4723 27.0973C38.9353 27.6342 38.0647 27.6342 37.5277 27.0973L34.7777 24.3473C34.2408 23.8103 34.2408 22.9397 34.7777 22.4027Z" fill="url(#paint1_linear_256_1459)"/>
<path fill-rule="evenodd" clip-rule="evenodd" d="M22 6.875C16.9221 6.875 12.4438 9.39247 9.69591 13.2466C9.25506 13.8649 8.39643 14.0088 7.7781 13.5679C7.15978 13.1271 7.01591 12.2684 7.45676 11.6501C10.6929 7.11119 15.9863 4.125 22 4.125C31.8711 4.125 39.875 12.1289 39.875 22C39.875 23.3658 39.7092 24.6846 39.4253 25.9465C39.2586 26.6874 38.5229 27.1528 37.782 26.9861C37.0411 26.8194 36.5757 26.0837 36.7424 25.3428C36.9864 24.258 37.125 23.1422 37.125 22C37.125 13.6477 30.3523 6.875 22 6.875Z" fill="url(#paint2_linear_256_1459)"/>
<path fill-rule="evenodd" clip-rule="evenodd" d="M7.27303 12.0101C7.51505 11.2903 8.29475 10.903 9.01454 11.145C13.1018 12.5193 17.4585 13.2917 22 13.2917C26.5415 13.2917 30.8982 12.5193 34.9855 11.145C35.7053 10.903 36.485 11.2903 36.727 12.0101C36.969 12.7299 36.5817 13.5096 35.8619 13.7516C31.5085 15.2154 26.8562 16.0417 22 16.0417C17.1438 16.0417 12.4915 15.2154 8.13813 13.7516C7.41833 13.5096 7.03101 12.7299 7.27303 12.0101Z" fill="url(#paint3_linear_256_1459)"/>
<path fill-rule="evenodd" clip-rule="evenodd" d="M6.21066 17.0065C6.95153 17.1732 7.41699 17.909 7.2503 18.6498C7.00622 19.7346 6.86767 20.8505 6.86767 21.9927C6.86767 30.3449 13.6404 37.1177 21.9927 37.1177C27.0726 37.1177 31.5506 34.6001 34.2965 30.7464C34.7372 30.128 35.5958 29.9839 36.2142 30.4245C36.8327 30.8652 36.9768 31.7238 36.5361 32.3422C33.3017 36.8816 28.0081 39.8677 21.9927 39.8677C12.1216 39.8677 4.11767 31.8637 4.11767 21.9927C4.11767 20.6269 4.28345 19.308 4.56737 18.0462C4.73407 17.3053 5.46979 16.8398 6.21066 17.0065Z" fill="url(#paint4_linear_256_1459)"/>
<path fill-rule="evenodd" clip-rule="evenodd" d="M21.9945 30.701C17.453 30.701 13.0963 31.4734 9.00904 32.8476C8.28925 33.0897 7.50955 32.7023 7.26753 31.9825C7.02552 31.2627 7.41283 30.483 8.13263 30.241C12.486 28.7773 17.1383 27.951 21.9945 27.951C26.8507 27.951 31.503 28.7773 35.8564 30.241C36.5762 30.483 36.9635 31.2627 36.7215 31.9825C36.4795 32.7023 35.6998 33.0897 34.98 32.8476C30.8927 31.4734 26.536 30.701 21.9945 30.701Z" fill="url(#paint5_linear_256_1459)"/>
<path fill-rule="evenodd" clip-rule="evenodd" d="M18.3444 5.8317C19.3356 4.82551 20.5718 4.125 22 4.125C23.4282 4.125 24.6644 4.82551 25.6556 5.8317C26.642 6.83305 27.4671 8.21149 28.1306 9.80389C29.4601 12.9947 30.25 17.3075 30.25 22C30.25 26.6925 29.4601 31.0053 28.1306 34.1961C27.4671 35.7885 26.642 37.167 25.6556 38.1683C24.6644 39.1745 23.4282 39.875 22 39.875C20.5718 39.875 19.3356 39.1745 18.3444 38.1683C17.358 37.167 16.5329 35.7885 15.8694 34.1961C14.5399 31.0053 13.75 26.6925 13.75 22C13.75 17.3075 14.5399 12.9947 15.8694 9.80389C16.5329 8.21149 17.358 6.83305 18.3444 5.8317ZM18.4079 10.8616C17.2491 13.6426 16.5 17.5798 16.5 22C16.5 26.4202 17.2491 30.3574 18.4079 33.1384C18.9885 34.5319 19.6449 35.5699 20.3035 36.2384C20.9573 36.9021 21.5297 37.125 22 37.125C22.4703 37.125 23.0427 36.9021 23.6965 36.2384C24.3551 35.5699 25.0115 34.5319 25.5921 33.1384C26.7509 30.3574 27.5 26.4202 27.5 22C27.5 17.5798 26.7509 13.6426 25.5921 10.8616C25.0115 9.46808 24.3551 8.43014 23.6965 7.7616C23.0427 7.09791 22.4703 6.875 22 6.875C21.5297 6.875 20.9573 7.09791 20.3035 7.7616C19.6449 8.43014 18.9885 9.46808 18.4079 10.8616Z" fill="url(#paint6_linear_256_1459)"/>
<defs>
<linearGradient id="paint0_linear_256_1459" x1="22" y1="4.125" x2="22" y2="39.875" gradientUnits="userSpaceOnUse">
<stop stop-color="#6C63FF"/>
<stop offset="1" stop-color="#2564EA"/>
</linearGradient>
<linearGradient id="paint1_linear_256_1459" x1="22" y1="4.125" x2="22" y2="39.875" gradientUnits="userSpaceOnUse">
<stop stop-color="#6C63FF"/>
<stop offset="1" stop-color="#2564EA"/>
</linearGradient>
<linearGradient id="paint2_linear_256_1459" x1="22" y1="4.125" x2="22" y2="39.875" gradientUnits="userSpaceOnUse">
<stop stop-color="#6C63FF"/>
<stop offset="1" stop-color="#2564EA"/>
</linearGradient>
<linearGradient id="paint3_linear_256_1459" x1="22" y1="4.125" x2="22" y2="39.875" gradientUnits="userSpaceOnUse">
<stop stop-color="#6C63FF"/>
<stop offset="1" stop-color="#2564EA"/>
</linearGradient>
<linearGradient id="paint4_linear_256_1459" x1="22" y1="4.125" x2="22" y2="39.875" gradientUnits="userSpaceOnUse">
<stop stop-color="#6C63FF"/>
<stop offset="1" stop-color="#2564EA"/>
</linearGradient>
<linearGradient id="paint5_linear_256_1459" x1="22" y1="4.125" x2="22" y2="39.875" gradientUnits="userSpaceOnUse">
<stop stop-color="#6C63FF"/>
<stop offset="1" stop-color="#2564EA"/>
</linearGradient>
<linearGradient id="paint6_linear_256_1459" x1="22" y1="4.125" x2="22" y2="39.875" gradientUnits="userSpaceOnUse">
<stop stop-color="#6C63FF"/>
<stop offset="1" stop-color="#2564EA"/>
</linearGradient>
</defs>
</svg>
