<svg width="45" height="44" viewBox="0 0 45 44" fill="none" xmlns="http://www.w3.org/2000/svg">
<path fill-rule="evenodd" clip-rule="evenodd" d="M7.66634 2.2915C5.89443 2.2915 4.45801 3.72792 4.45801 5.49984V10.9998C4.45801 12.7718 5.89443 14.2082 7.66634 14.2082H9.04134V24.2917H7.66634C5.89443 24.2917 4.45801 25.7281 4.45801 27.5V33C4.45801 34.7719 5.89443 36.2083 7.66634 36.2083H13.1663C14.9383 36.2083 16.3747 34.7719 16.3747 33V31.625H18.6663C19.4257 31.625 20.0413 31.0094 20.0413 30.25C20.0413 29.4906 19.4257 28.875 18.6663 28.875H16.3747V27.5C16.3747 25.7281 14.9383 24.2917 13.1663 24.2917H11.7913V14.2082H13.1663C14.9383 14.2082 16.3747 12.7718 16.3747 10.9998V9.625H26.458V11C26.458 12.7719 27.8944 14.2083 29.6663 14.2083H31.0413V16.5C31.0413 17.2594 31.6569 17.875 32.4163 17.875C33.1757 17.875 33.7913 17.2594 33.7913 16.5V14.2083H35.1663C36.9383 14.2083 38.3747 12.7719 38.3747 11V5.5C38.3747 3.72809 36.9383 2.29167 35.1663 2.29167H29.6663C27.8944 2.29167 26.458 3.72809 26.458 5.5V6.875H16.3747V5.49984C16.3747 3.72792 14.9383 2.2915 13.1663 2.2915H7.66634ZM32.4163 11.4583H35.1663C35.4195 11.4583 35.6247 11.2531 35.6247 11V5.5C35.6247 5.24687 35.4195 5.04167 35.1663 5.04167H29.6663C29.4132 5.04167 29.208 5.24687 29.208 5.5V8.25V11C29.208 11.2531 29.4132 11.4583 29.6663 11.4583H32.4163ZM13.6247 27.5V30.25V33C13.6247 33.2531 13.4195 33.4583 13.1663 33.4583H7.66634C7.41321 33.4583 7.20801 33.2531 7.20801 33V27.5C7.20801 27.2469 7.41321 27.0417 7.66634 27.0417H10.4163H13.1663C13.4195 27.0417 13.6247 27.2469 13.6247 27.5ZM13.6247 5.49984V8.25V10.9998C13.6247 11.253 13.4195 11.4582 13.1663 11.4582H7.66634C7.41321 11.4582 7.20801 11.253 7.20801 10.9998V5.49984C7.20801 5.24671 7.41321 5.0415 7.66634 5.0415H13.1663C13.4195 5.0415 13.6247 5.24671 13.6247 5.49984ZM29.6663 31.1667C28.9069 31.1667 28.2913 31.7823 28.2913 32.5417C28.2913 33.3011 28.9069 33.9167 29.6663 33.9167H33.333C34.0924 33.9167 34.708 33.3011 34.708 32.5417C34.708 31.7823 34.0924 31.1667 33.333 31.1667H29.6663ZM28.2913 27.9583C28.2913 27.1989 28.9069 26.5833 29.6663 26.5833H33.333C34.0924 26.5833 34.708 27.1989 34.708 27.9583C34.708 28.7177 34.0924 29.3333 33.333 29.3333H29.6663C28.9069 29.3333 28.2913 28.7177 28.2913 27.9583ZM27.833 20.625C25.0486 20.625 22.7913 22.8822 22.7913 25.6667V34.8333C22.7913 37.6178 25.0486 39.875 27.833 39.875H35.1663C37.9508 39.875 40.208 37.6178 40.208 34.8333V25.6667C40.208 22.8822 37.9508 20.625 35.1663 20.625H27.833ZM25.5413 25.6667C25.5413 24.401 26.5674 23.375 27.833 23.375H35.1663C36.432 23.375 37.458 24.401 37.458 25.6667V34.8333C37.458 36.099 36.432 37.125 35.1663 37.125H27.833C26.5674 37.125 25.5413 36.099 25.5413 34.8333V25.6667Z" fill="url(#paint0_linear_256_1466)"/>
<defs>
<linearGradient id="paint0_linear_256_1466" x1="22.333" y1="2.2915" x2="22.333" y2="39.8748" gradientUnits="userSpaceOnUse">
<stop stop-color="#6C63FF"/>
<stop offset="1" stop-color="#2564EA"/>
</linearGradient>
</defs>
</svg>
