<svg width="24" height="25" viewBox="0 0 24 25" fill="none" xmlns="http://www.w3.org/2000/svg">
<path d="M12.0002 2.94824C6.50737 2.94824 2.05469 7.40093 2.05469 12.8937C2.05469 18.3866 6.50737 22.8393 12.0002 22.8393C17.493 22.8393 21.9457 18.3866 21.9457 12.8937C21.9457 7.40093 17.493 2.94824 12.0002 2.94824ZM9.56562 17.016H7.55165V10.5348H9.56562V17.016ZM8.5462 9.73916C7.9101 9.73916 7.49882 9.2885 7.49882 8.73114C7.49882 8.16238 7.92254 7.72519 8.5721 7.72519C9.22167 7.72519 9.61949 8.16238 9.63192 8.73114C9.63192 9.2885 9.22167 9.73916 8.5462 9.73916ZM16.9211 17.016H14.9072V13.4242C14.9072 12.5881 14.615 12.0204 13.8867 12.0204C13.3304 12.0204 12.9999 12.4048 12.8539 12.7746C12.8 12.9062 12.7865 13.0927 12.7865 13.2781V17.0149H10.7715V12.6016C10.7715 11.7925 10.7456 11.116 10.7187 10.5338H12.4685L12.5607 11.434H12.6011C12.8663 11.0114 13.5158 10.3877 14.6026 10.3877C15.9276 10.3877 16.9211 11.2755 16.9211 13.1838V17.016Z" fill="white"/>
</svg>
