<svg width="106" height="48" viewBox="0 0 106 48" fill="none" xmlns="http://www.w3.org/2000/svg">
<g clip-path="url(#clip0_288_2149)">
<g clip-path="url(#clip1_288_2149)">
<path fill-rule="evenodd" clip-rule="evenodd" d="M18.5 4L0.5 10V29.5L6.5 31.5V37L24.5 43V11.5L18.5 13.5V4ZM8.5 32.167L18.5 35.5V15.608L22.5 14.275V40.225L8.5 35.56V32.167Z" fill="white"/>
<path d="M43.4001 20.4501V31.0001H47.8461V20.4501H51.3761V17.0581H39.8901V20.4511L43.4001 20.4501ZM53.6051 25.2481C53.6051 29.2261 55.9051 31.2541 59.9811 31.2541C63.8811 31.2541 66.3771 29.4011 66.3771 25.2091V17.0591H61.9301V25.0531C61.9301 26.8861 61.5401 27.7831 59.9801 27.7831C58.4001 27.7831 58.0101 26.8861 58.0101 25.0731V17.0581H53.6041L53.6051 25.2481Z" fill="white"/>
<path fill-rule="evenodd" clip-rule="evenodd" d="M69.4648 31.0001V17.0581H75.0229C79.0399 17.0581 80.7558 18.8521 80.7558 21.8351V21.9131C80.7558 24.8191 78.8258 26.4571 75.2178 26.4571H73.8718V31.0001H69.4648ZM74.7878 23.4931H73.8718V20.3531H74.8078C75.9578 20.3531 76.5629 20.7831 76.5629 21.8551V21.9331C76.5629 22.9661 75.9578 23.4931 74.7878 23.4931Z" fill="white"/>
<path d="M83.063 31.0001V17.0581H87.49V27.5881H92.56V31.0001H83.063ZM95.062 17.0581V31.0001H105.28V27.6071H99.469V25.5211H103.837V22.4211H99.469V20.4511H104.968V17.0581H95.062Z" fill="white"/>
</g>
</g>
<defs>
<clipPath id="clip0_288_2149">
<rect width="105" height="48" fill="white" transform="translate(0.5)"/>
</clipPath>
<clipPath id="clip1_288_2149">
<rect width="105" height="48" fill="white" transform="translate(0.5)"/>
</clipPath>
</defs>
</svg>
