<svg width="148" height="48" viewBox="0 0 148 48" fill="none" xmlns="http://www.w3.org/2000/svg">
<mask id="mask0_288_2191" style="mask-type:luminance" maskUnits="userSpaceOnUse" x="0" y="0" width="148" height="48">
<path d="M0.5 0H147.5V48H0.5V0Z" fill="white"/>
</mask>
<g mask="url(#mask0_288_2191)">
<path fill-rule="evenodd" clip-rule="evenodd" d="M29.7774 33.6769C29.7774 36.1199 28.9274 37.1189 26.6124 37.1189H6.07037C3.75437 37.1189 2.90537 36.1189 2.90537 33.6769V28.9199C2.90537 26.6259 1.80037 25.3299 0.738373 24.7359C0.665311 24.6916 0.604901 24.6293 0.562975 24.5548C0.521049 24.4804 0.499023 24.3964 0.499023 24.3109C0.499023 24.2255 0.521049 24.1415 0.562975 24.0671C0.604901 23.9926 0.665311 23.9302 0.738373 23.8859C1.84337 23.1849 2.90537 21.7189 2.90537 19.7649V15.0899C2.90537 12.4559 3.62737 11.6899 5.94237 11.6899H26.7404C29.0564 11.6899 29.7784 12.4559 29.7784 15.0899V19.7629C29.7784 21.7169 30.8404 23.1829 31.9444 23.8829C32.2644 24.0959 32.2644 24.5429 31.9444 24.7329C30.8824 25.3489 29.7784 26.6449 29.7784 28.9179V33.6759L29.7774 33.6769ZM10.3194 30.5549C11.9974 32.0199 13.8034 32.7639 16.2894 32.7639C20.1974 32.7639 22.7464 30.8099 22.7464 27.6439C22.7464 24.2919 19.7104 23.4369 17.2414 22.7419C15.5484 22.2649 14.1214 21.8619 14.1214 20.7819C14.1214 20.0819 14.8654 19.4019 16.1184 19.4019C17.3284 19.4019 18.3284 19.6579 19.2834 20.1459C19.6024 20.2949 19.8994 20.4009 20.1754 20.4009C20.5794 20.4009 20.8984 20.2099 21.1744 19.8279L21.5564 19.2539C21.7054 19.0419 21.7694 18.8079 21.7694 18.5539C21.7694 18.1279 21.5564 17.7039 21.2384 17.4909C19.9634 16.6839 18.2424 16.0039 15.9064 16.0039C12.5924 16.0039 10.0434 17.7459 10.0434 20.8679C10.0434 24.3579 13.1454 25.2449 15.6294 25.9529C17.2864 26.4259 18.6674 26.8199 18.6674 27.8569C18.6674 28.8549 17.7334 29.3439 16.5644 29.3439C15.1607 29.3573 13.7851 28.9505 12.6144 28.1759C12.2524 27.9419 11.9124 27.7929 11.5514 27.7929C11.2314 27.7929 10.9564 27.9419 10.7014 28.2609L10.1914 28.9189C10.0014 29.1319 9.93737 29.4079 9.93737 29.6629C9.93737 29.9809 10.0434 30.2999 10.3194 30.5549ZM42.0554 28.5999C41.7794 28.5999 41.5454 28.7069 41.3334 28.9829L40.9084 29.5779C40.7384 29.7679 40.6954 30.0019 40.6954 30.2149C40.6954 30.4909 40.8014 30.7669 41.0354 30.9799C42.4374 32.1899 43.9674 32.8279 46.0704 32.8279C49.3624 32.8279 51.5294 31.1709 51.5294 28.5149C51.5294 25.6909 48.9614 24.9699 46.8754 24.3839C45.4454 23.9819 44.2434 23.6439 44.2434 22.7379C44.2434 22.1219 44.8804 21.5679 45.9214 21.5679C46.8448 21.565 47.7554 21.7842 48.5764 22.2069L48.6404 22.2309C48.8924 22.3289 49.1254 22.4189 49.3404 22.4189C49.6604 22.4189 49.9364 22.2689 50.1704 21.9289L50.5104 21.4419C50.6251 21.2572 50.6842 21.0434 50.6804 20.8259C50.6804 20.4649 50.5104 20.1039 50.2334 19.9339C49.1504 19.2109 47.7054 18.6589 45.7304 18.6589C42.9474 18.6589 40.7804 20.1459 40.7804 22.7789C40.7804 25.7069 43.3954 26.4539 45.4924 27.0519C46.8954 27.4519 48.0664 27.7869 48.0664 28.6639C48.0664 29.5339 47.2804 29.9389 46.2824 29.9389C44.9864 29.9389 43.9024 29.5779 42.9474 28.9389C42.6714 28.7279 42.3314 28.5999 42.0554 28.5999ZM62.3414 30.8949C62.3445 30.7136 62.2922 30.5357 62.1914 30.3849L61.9164 29.9389C61.6614 29.4929 61.3644 29.3229 60.9814 29.3229C60.7914 29.3229 60.5784 29.3649 60.3014 29.4709C60.0264 29.5779 59.7074 29.6199 59.3464 29.6199C58.2204 29.6199 57.7314 28.6429 57.7314 27.1769V22.2499H60.9814C61.5974 22.2499 62.1074 21.7399 62.1074 21.1239V20.1039C62.1074 19.4889 61.5974 18.9789 60.9814 18.9789H57.7314V16.3449C57.7314 15.7289 57.2214 15.2189 56.6064 15.2189H55.3954C54.7794 15.2189 54.2694 15.7289 54.2694 16.3449V27.3049C54.2694 30.7679 55.4164 32.7439 58.4544 32.7439C59.7924 32.7439 60.8124 32.4679 61.8314 31.8509C62.1714 31.6809 62.3414 31.2769 62.3414 30.8949ZM69.2234 24.1399C66.4834 24.1399 64.2954 25.5419 64.2954 28.5149C64.2954 31.1279 66.0584 32.6579 68.4594 32.6789C70.2854 32.6789 71.7294 31.9779 72.4524 30.9589V31.4039C72.4524 32.0199 72.9624 32.5299 73.5784 32.5299H74.3644C74.9804 32.5299 75.4904 32.0199 75.4904 31.4039V24.3099C75.4904 20.7419 74.1094 18.7029 70.1164 18.7029C68.7354 18.7029 67.3964 19.0629 66.2284 19.5949C65.8684 19.7649 65.5914 20.1679 65.5914 20.5509C65.5965 20.6733 65.6243 20.7937 65.6734 20.9059C65.6894 20.9509 65.7064 20.9959 65.7184 21.0389L65.8884 21.3989C66.1014 21.8249 66.4624 22.0379 66.9084 22.0379C67.0424 22.0379 67.1884 21.9979 67.3284 21.9599L67.4384 21.9299C68.0764 21.7189 68.7354 21.5699 69.7544 21.5699C71.6244 21.5699 72.2614 22.6319 72.2614 24.6079V25.0119C71.6014 24.5219 70.4134 24.1409 69.2234 24.1409V24.1399ZM69.9034 26.4549C70.8804 26.4549 71.6454 26.6669 72.2614 27.1139H72.2814V28.5139C71.8574 29.0889 71.1144 29.7259 69.6694 29.7259C68.5654 29.7259 67.7364 29.1529 67.7364 28.1329C67.7364 26.9859 68.7564 26.4549 69.9034 26.4549ZM86.8124 30.8949C86.8155 30.7136 86.7632 30.5357 86.6624 30.3849L86.3874 29.9389C86.1324 29.4929 85.8354 29.3229 85.4524 29.3229C85.2624 29.3229 85.0494 29.3649 84.7724 29.4709C84.4964 29.5779 84.1784 29.6199 83.8174 29.6199C82.6914 29.6199 82.2024 28.6429 82.2024 27.1769V22.2499H85.4524C86.0684 22.2499 86.5784 21.7399 86.5784 21.1239V20.1039C86.5784 19.4889 86.0684 18.9789 85.4524 18.9789H82.2024V16.3449C82.2024 15.7289 81.6924 15.2189 81.0764 15.2189H79.8664C79.2504 15.2189 78.7404 15.7289 78.7404 16.3449V27.3049C78.7404 30.7679 79.8874 32.7439 82.9244 32.7439C84.2634 32.7439 85.2824 32.4679 86.3024 31.8509C86.6424 31.6809 86.8124 31.2769 86.8124 30.8949ZM93.6944 24.1399C90.9544 24.1399 88.7664 25.5419 88.7664 28.5149C88.7664 31.1279 90.5504 32.6579 92.9294 32.6789C94.7564 32.6789 96.2014 31.9779 96.9234 30.9589V31.4039C96.9234 32.0199 97.4334 32.5299 98.0494 32.5299H98.8354C99.4514 32.5299 99.9614 32.0199 99.9614 31.4039V24.3099C99.9614 20.7419 98.5804 18.7029 94.5864 18.7029C93.2064 18.7029 91.8664 19.0629 90.6994 19.5949C90.3384 19.7649 90.0624 20.1679 90.0624 20.5509C90.0675 20.6733 90.0953 20.7937 90.1444 20.9059C90.1604 20.9509 90.1774 20.9959 90.1894 21.0389L90.3594 21.3989C90.5724 21.8249 90.9334 22.0379 91.3794 22.0379C91.5134 22.0379 91.6594 21.9979 91.7994 21.9599L91.9094 21.9299C92.5474 21.7189 93.2064 21.5699 94.2254 21.5699C96.0954 21.5699 96.7324 22.6319 96.7324 24.6079V25.0119C96.0724 24.5219 94.8844 24.1409 93.6944 24.1409V24.1399ZM94.3744 26.4549C95.3514 26.4549 96.1164 26.6669 96.7324 27.1139H96.7524V28.5139C96.3284 29.0889 95.5854 29.7259 94.1404 29.7259C93.0364 29.7259 92.2074 29.1529 92.2074 28.1329C92.2074 26.9859 93.2274 26.4549 94.3744 26.4549ZM111.176 18.7449C109.519 18.7449 107.926 19.4029 106.97 20.4649H106.907V20.0819C106.907 19.4659 106.397 18.9559 105.781 18.9559H104.57C103.954 18.9559 103.444 19.4659 103.444 20.0819V31.3619C103.444 31.9779 103.954 32.4879 104.57 32.4879H105.781C106.397 32.4879 106.907 31.9779 106.907 31.3619V23.4169C107.523 22.5039 108.521 21.9729 109.732 21.9729C111.176 21.9729 111.962 22.8859 111.962 24.3099V31.3199C111.962 31.9349 112.472 32.4449 113.088 32.4449H114.299C114.915 32.4449 115.425 31.9349 115.425 31.3189V24.4999C115.425 24.3239 115.418 24.1039 115.413 23.9059C115.408 23.7439 115.403 23.5959 115.403 23.5009C115.871 22.5879 116.89 21.9509 118.186 21.9509C119.822 21.9509 120.502 22.8639 120.502 24.5409V31.3609C120.502 31.9769 121.011 32.4869 121.627 32.4869H122.838C123.454 32.4869 123.964 31.9769 123.964 31.3609V23.6709C123.964 19.9539 122.116 18.7429 119.652 18.7429C117.57 18.7429 116.062 19.6349 115.106 20.9099C114.618 19.6779 113.237 18.7429 111.176 18.7429V18.7449ZM129.784 16.2799C130.761 16.2799 131.76 15.4939 131.76 14.1129C131.76 12.9029 130.761 12.1169 129.784 12.1169C128.616 12.1169 127.618 12.9029 127.618 14.1129C127.618 15.4929 128.616 16.2799 129.784 16.2799ZM131.441 20.1039C131.441 19.4879 130.931 18.9779 130.315 18.9779V18.9559H129.105C128.489 18.9559 127.979 19.4659 127.979 20.0819V31.3619C127.979 31.9779 128.489 32.4879 129.105 32.4879H130.315C130.931 32.4879 131.441 31.9779 131.441 31.3619V20.1039ZM142.381 21.8879C143.252 21.8879 143.953 22.0369 144.76 22.4179C144.903 22.4979 145.058 22.5299 145.198 22.5579L145.333 22.5879C145.737 22.5879 146.119 22.3339 146.353 21.9519L146.799 21.1659C146.905 21.0159 146.927 20.8459 146.927 20.6759C146.927 20.2949 146.735 19.8489 146.396 19.6789C145.079 18.9559 143.762 18.6589 141.956 18.6589C137.835 18.6589 134.967 21.8029 134.967 25.7329C134.967 29.9809 137.92 32.8059 142.381 32.8059C144.059 32.8059 145.482 32.5089 147.097 31.2129C147.351 31.0219 147.5 30.6179 147.5 30.2569C147.5 30.0239 147.436 29.7899 147.288 29.6409L146.778 29.0039C146.666 28.8645 146.523 28.7521 146.361 28.6749C146.2 28.5978 146.023 28.5578 145.843 28.5579C145.61 28.5579 145.355 28.6429 145.121 28.7919C144.335 29.3019 143.57 29.5779 142.508 29.5779C140.469 29.5779 138.621 28.0909 138.621 25.7119C138.621 23.3539 140.448 21.8879 142.381 21.8879Z" fill="white"/>
</g>
</svg>
