<svg width="200" height="30" viewBox="0 0 200 30" fill="none" xmlns="http://www.w3.org/2000/svg">
<g clip-path="url(#clip0_288_2091)">
<mask id="mask0_288_2091" style="mask-type:luminance" maskUnits="userSpaceOnUse" x="0" y="0" width="200" height="30">
<path d="M199.654 0.915527H0V29.0845H199.654V0.915527Z" fill="white"/>
</mask>
<g mask="url(#mask0_288_2091)">
<mask id="mask1_288_2091" style="mask-type:luminance" maskUnits="userSpaceOnUse" x="0" y="0" width="21" height="30">
<path d="M20.9507 0.915527H0V29.0845H20.9507V0.915527Z" fill="white"/>
</mask>
<g mask="url(#mask1_288_2091)">
<path d="M20.4965 6.19722C19.412 3.11975 16.4754 0.915527 13.0282 0.915527H0C0 3.83102 2.36268 6.19722 5.28169 6.19722C5.37676 6.19722 5.47183 6.1937 5.56338 6.19018C5.55986 6.1937 5.55634 6.1937 5.55986 6.19722H13.0282C14.4859 6.19722 15.669 7.37679 15.669 8.83806C15.669 10.2993 14.4859 11.4789 13.0282 11.4789H7.74648C7.02465 11.4789 6.33803 11.6233 5.71479 11.8838C3.80634 12.6796 2.46479 14.5634 2.46479 16.7606V29.0845C5.38028 29.0845 7.74648 26.7183 7.74648 23.8029V19.4014C7.74648 17.9437 8.92958 16.7606 10.3873 16.7606H13.0282C16.4754 16.7606 19.4085 14.5564 20.4965 11.4789C20.7923 10.655 20.9507 9.76412 20.9507 8.83806C20.9507 7.91201 20.7923 7.02468 20.4965 6.19722Z" fill="#2564EA"/>
<path d="M14.1312 20.0849L11.7896 18.7328C10.7755 18.1482 9.50439 18.8806 9.50439 20.0532V20.525H11.9551C11.9551 21.4968 11.1664 22.2856 10.1945 22.2856H9.50439V22.7574C9.50439 23.9299 10.772 24.6623 11.7896 24.0778L14.1312 22.7257C15.1453 22.1412 15.1453 20.6729 14.1312 20.0884V20.0849Z" fill="#2564EA"/>
</g>
<path d="M43.077 7.88964C44.0766 8.87316 44.5763 10.3242 44.5763 12.2428C44.5763 14.1614 44.0766 15.6205 43.077 16.6201C42.0935 17.6036 40.6988 18.0953 38.893 18.0953H35.5798V23.6094H32.2183V6.39022H38.893C40.6988 6.39022 42.0935 6.89006 43.077 7.88964ZM41.2147 12.2428C41.2147 10.3403 40.3845 9.38905 38.7238 9.38905H35.5798V15.0723H38.7238C39.53 15.0723 40.1426 14.8547 40.5618 14.4194C40.9971 13.984 41.2147 13.2585 41.2147 12.2428ZM60.4636 23.6094H56.957L55.9897 20.6347H50.2097L49.2664 23.6094H45.7597L51.2738 7.84127C51.5156 7.29306 51.7815 6.91424 52.0718 6.70461C52.378 6.49498 52.749 6.39022 53.1843 6.39022C53.6195 6.39022 53.9661 6.48696 54.2242 6.68043C54.4983 6.87391 54.7401 7.26085 54.9497 7.84127L60.4636 23.6094ZM55.2157 17.8051L53.1843 10.9852L51.056 17.8051H55.2157ZM71.5326 16.9344H74.6523C74.6523 19.1273 74.1042 20.812 73.0078 21.9889C71.9115 23.166 70.3636 23.7544 68.3645 23.7544C63.963 23.7544 61.7622 21.1667 61.7622 15.9913V14.5402C61.7622 10.4612 62.8908 7.90579 65.148 6.87391C66.0347 6.45475 67.107 6.24512 68.3645 6.24512C70.2025 6.24512 71.6938 6.75298 72.8385 7.76872C73.9994 8.76829 74.5798 10.2193 74.5798 12.1219H71.4359C71.2585 11.1707 70.944 10.4532 70.4928 9.96947C70.0412 9.48579 69.3319 9.24395 68.3645 9.24395C67.2359 9.24395 66.3974 9.59868 65.8494 10.308C65.4625 10.8079 65.2366 11.6624 65.1722 12.8716C65.14 13.2585 65.1239 13.7825 65.1239 14.4436V15.9429C65.1239 17.7971 65.3818 19.0628 65.8977 19.7398C66.4298 20.417 67.2521 20.7556 68.3645 20.7556C69.493 20.7556 70.267 20.4492 70.6861 19.8366C71.1215 19.2078 71.4036 18.2405 71.5326 16.9344ZM88.8585 23.6094H82.7642C80.8295 23.6094 79.4671 23.2788 78.6771 22.6178C77.9032 21.9406 77.5163 20.7556 77.5163 19.0627V6.39022H88.8585V9.38905H80.8778V13.4278H86.4643L86.2225 16.4267H80.8778V18.8209C80.8778 19.498 81.0311 19.9656 81.3373 20.2236C81.6438 20.4815 82.2 20.6105 83.006 20.6105H88.8585V23.6094Z" fill="black"/>
<path d="M103.501 9.38905H97.4308C96.7218 9.38905 96.2216 9.52613 95.9315 9.80019C95.6577 10.0742 95.5204 10.5499 95.5204 11.227V13.6213H101.832L101.591 16.6201H95.5204V23.6094H92.1587V9.89692C92.1587 8.62319 92.4335 7.72034 92.9809 7.1883C93.546 6.65624 94.5046 6.39022 95.8588 6.39022H103.501V9.38905ZM117.041 23.6094H111.914C109.979 23.6094 108.576 23.2385 107.706 22.4968C106.852 21.7391 106.424 20.5137 106.424 18.8209V6.39022H109.786V18.8209C109.786 19.498 109.938 19.9656 110.245 20.2236C110.552 20.4815 111.108 20.6105 111.914 20.6105H117.041V23.6094ZM132.345 14.2017V15.5077C132.345 18.3936 131.797 20.4895 130.701 21.7956C129.62 23.1015 127.879 23.7544 125.477 23.7544C123.074 23.7544 121.332 23.1015 120.253 21.7956C119.189 20.4895 118.657 18.3694 118.657 15.4351V14.1775C118.657 11.5011 119.197 9.50998 120.277 8.20403C121.373 6.89809 123.098 6.24512 125.453 6.24512C127.823 6.24512 129.564 6.90612 130.676 8.22822C131.789 9.55031 132.345 11.5414 132.345 14.2017ZM128.983 15.4351V14.5402C128.983 12.9925 128.79 11.7591 128.403 10.8401C127.951 9.776 126.984 9.24395 125.501 9.24395C124.002 9.24395 123.025 9.776 122.575 10.8401C122.203 11.7107 122.018 12.9441 122.018 14.5402V15.4351C122.018 17.5149 122.309 18.9175 122.889 19.6432C123.114 19.9495 123.445 20.2156 123.881 20.4412C124.331 20.6508 124.863 20.7556 125.477 20.7556C126.106 20.7556 126.638 20.6508 127.073 20.4412C127.508 20.2316 127.847 19.9737 128.089 19.6673C128.331 19.3609 128.515 18.958 128.645 18.4581C128.87 17.6681 128.983 16.6605 128.983 15.4351ZM154.583 6.39022L149.965 23.6094H147.159L143.99 13.1618L140.823 23.6094H138.017L133.422 6.39022H136.929L139.589 17.2489L142.225 8.27658C142.516 6.93843 143.128 6.2693 144.063 6.2693C144.531 6.2693 144.886 6.44661 145.127 6.80136C145.369 7.13993 145.587 7.63164 145.78 8.27658L148.392 17.2489L151.076 6.39022H154.583Z" fill="#2564EA"/>
</g>
</g>
<defs>
<clipPath id="clip0_288_2091">
<rect width="200" height="29.5775" fill="white" transform="translate(0 0.211426)"/>
</clipPath>
</defs>
</svg>
