<svg width="33" height="32" viewBox="0 0 33 32" fill="none" xmlns="http://www.w3.org/2000/svg">
<path d="M30.0841 7.61333V20.3867C30.0841 24.0667 27.0974 27.0533 23.4174 27.0533H10.0841C9.47075 27.0533 8.88408 26.9733 8.31075 26.8133C7.48408 26.5867 7.21741 25.5333 7.83074 24.92L22.0041 10.7467C22.2974 10.4533 22.7374 10.3867 23.1507 10.4667C23.5774 10.5467 24.0441 10.4267 24.3774 10.1067L27.8041 6.66666C29.0574 5.41333 30.0841 5.82666 30.0841 7.61333Z" fill="url(#paint0_linear_2034_526)"/>
<path d="M20.2713 9.81336L6.3113 23.7734C5.6713 24.4134 4.60464 24.2534 4.17797 23.4534C3.68464 22.5467 3.41797 21.4934 3.41797 20.3867V7.61336C3.41797 5.82669 4.44464 5.41336 5.69797 6.66669L9.13797 10.12C9.65797 10.6267 10.5113 10.6267 11.0313 10.12L15.8046 5.33336C16.3246 4.81336 17.178 4.81336 17.698 5.33336L20.2846 7.92003C20.7913 8.44003 20.7913 9.29336 20.2713 9.81336Z" fill="url(#paint1_linear_2034_526)"/>
<defs>
<linearGradient id="paint0_linear_2034_526" x1="18.7896" y1="5.94336" x2="18.7896" y2="27.0533" gradientUnits="userSpaceOnUse">
<stop stop-color="#6C63FF"/>
<stop offset="1" stop-color="#2564EA"/>
</linearGradient>
<linearGradient id="paint1_linear_2034_526" x1="12.0405" y1="4.94336" x2="12.0405" y2="24.1683" gradientUnits="userSpaceOnUse">
<stop stop-color="#6C63FF"/>
<stop offset="1" stop-color="#2564EA"/>
</linearGradient>
</defs>
</svg>
