<svg width="32" height="32" viewBox="0 0 32 32" fill="none" xmlns="http://www.w3.org/2000/svg">
<path d="M25.0669 13.2129C23.5602 13.2129 22.2136 13.9462 21.3736 15.0662C20.5336 13.9462 19.1869 13.2129 17.6802 13.2129C15.1336 13.2129 13.0669 15.2929 13.0669 17.8529C13.0669 18.8396 13.2269 19.7596 13.4936 20.5996C14.8002 24.7462 18.8536 27.2396 20.8536 27.9196C21.1336 28.0129 21.6002 28.0129 21.8802 27.9196C23.8802 27.2396 27.9336 24.7596 29.2402 20.5996C29.5202 19.7462 29.6669 18.8396 29.6669 17.8529C29.6802 15.2929 27.6136 13.2129 25.0669 13.2129Z" fill="url(#paint0_linear_2034_466)"/>
<path d="M27.6665 11.1205C27.6665 11.4271 27.3598 11.6271 27.0665 11.5471C25.2665 11.0805 23.2932 11.4671 21.7998 12.5338C21.5065 12.7471 21.1065 12.7471 20.8265 12.5338C19.7732 11.7605 18.4932 11.3338 17.1465 11.3338C13.7065 11.3338 10.9065 14.1471 10.9065 17.6138C10.9065 21.3738 12.7065 24.1871 14.5198 26.0671C14.6132 26.1605 14.5332 26.3205 14.4132 26.2671C10.7732 25.0271 2.6665 19.8805 2.6665 11.1205C2.6665 7.25379 5.77317 4.13379 9.61317 4.13379C11.8932 4.13379 13.9065 5.22712 15.1732 6.92046C16.4532 5.22712 18.4665 4.13379 20.7332 4.13379C24.5598 4.13379 27.6665 7.25379 27.6665 11.1205Z" fill="url(#paint1_linear_2034_466)"/>
<defs>
<linearGradient id="paint0_linear_2034_466" x1="21.3669" y1="13.2129" x2="21.3669" y2="27.9896" gradientUnits="userSpaceOnUse">
<stop stop-color="#6C63FF"/>
<stop offset="1" stop-color="#2564EA"/>
</linearGradient>
<linearGradient id="paint1_linear_2034_466" x1="15.1665" y1="4.13379" x2="15.1665" y2="26.2778" gradientUnits="userSpaceOnUse">
<stop stop-color="#6C63FF"/>
<stop offset="1" stop-color="#2564EA"/>
</linearGradient>
</defs>
</svg>
